<?xml version="1.0" encoding="UTF-8"?>
<svg version="1.1" xmlns="http://www.w3.org/2000/svg" width="1024" height="1024">
<path d="M0 0 C0.33 0.66 0.66 1.32 1 2 C2.6661151 2.33607942 4.33288515 2.66891549 6 3 C8.4375 4.20825195 8.4375 4.20825195 11 5.73828125 C11.95841797 6.30482422 12.91683594 6.87136719 13.90429688 7.45507812 C14.92587891 8.06802734 15.94746094 8.68097656 17 9.3125 C19.1765809 10.60110945 21.35367326 11.88885534 23.53125 13.17578125 C24.62179687 13.82240723 25.71234375 14.4690332 26.8359375 15.13525391 C31.36409323 17.80393087 35.92895721 20.40569595 40.5 23 C49.32298508 28.01632479 58.09038689 33.12447144 66.83203125 38.28125 C70.88160378 40.65817301 74.90150266 42.99985102 79.13671875 45.03125 C82.86856125 46.84305906 86.1935887 49.0943629 89.61572266 51.42919922 C93.83664722 54.21001313 98.26961239 56.6117926 102.6875 59.0625 C110.55837928 63.46803251 118.37303508 67.95089669 126.125 72.5625 C134.0282443 77.261043 141.97673302 81.86859436 149.96972656 86.41259766 C156.63355774 90.20579817 163.25868078 94.06211303 169.875 97.9375 C177.8975894 102.63532514 185.9583048 107.25694274 194.0625 111.8125 C200.77368923 115.58639132 207.43910814 119.40977146 214.01660156 123.41186523 C219.09783777 126.49058598 224.24164669 129.45509062 229.39453125 132.41210938 C233.88957824 134.99355065 238.37424056 137.59279163 242.859375 140.19140625 C245.72949821 141.84422596 248.6126868 143.47123329 251.5 145.09375 C253.10484245 146.01966302 254.70905757 146.94666462 256.3125 147.875 C257.02833252 148.26606934 257.74416504 148.65713867 258.48168945 149.06005859 C263.90883054 152.25731096 266.72019772 156.13927227 269 162 C269.68029441 166.06280792 269.67630121 170.03948971 269.63491821 174.15187073 C269.64271817 175.35039687 269.65051812 176.548923 269.65855443 177.78376812 C269.67497971 181.0891572 269.66916272 184.39311392 269.65362334 187.69841421 C269.64227003 191.27108823 269.65979207 194.84364072 269.67352295 198.41629028 C269.69571701 205.40625956 269.69097159 212.39595988 269.67645974 219.38593955 C269.66515325 225.06788709 269.66364268 230.74975943 269.66907883 236.43171501 C269.67022807 237.64619249 269.67022807 237.64619249 269.67140054 238.88520486 C269.67299921 240.53014623 269.67462028 242.17508757 269.6762635 243.82002889 C269.69050953 259.23212004 269.67414583 274.6440623 269.64726166 290.05612903 C269.62491966 303.27341508 269.62880784 316.49048157 269.65185547 329.70776367 C269.67862646 345.0674356 269.68914079 360.42697719 269.67379415 375.78666919 C269.67220145 377.42514636 269.67062959 379.06362355 269.66907883 380.70210075 C269.66792176 381.91125634 269.66792176 381.91125634 269.66674132 383.14483931 C269.66242852 388.81887193 269.66970169 394.49282171 269.68147659 400.16684151 C269.69551441 407.08311855 269.69167475 413.99911194 269.66507287 420.91535658 C269.65195229 424.44255807 269.64675162 427.96928701 269.66331863 431.49648476 C269.68101928 435.32296007 269.65985301 439.14866537 269.63491821 442.97511292 C269.64607182 444.08571896 269.65722543 445.196325 269.66871703 446.34058577 C269.5826616 453.14525272 268.47791283 457.75465064 264 463 C261.8515625 464.77734375 261.8515625 464.77734375 259.625 465.9375 C258.31015625 466.65873047 258.31015625 466.65873047 256.96875 467.39453125 C255.9890625 467.92433594 255.009375 468.45414063 254 469 C251.70174965 470.36527015 249.41111291 471.73980929 247.125 473.125 C245.84146101 473.89505684 244.55759318 474.66456576 243.2734375 475.43359375 C240.17080305 477.29473391 237.07291537 479.16358557 233.9765625 481.03515625 C218.71744101 490.24642903 218.71744101 490.24642903 211.046875 494.34375 C198.65374267 501.08052962 186.49766966 508.27180132 174.3125 515.375 C172.84453979 516.23061523 172.84453979 516.23061523 171.34692383 517.10351562 C169.47097928 518.1993787 167.596966 519.2985559 165.72509766 520.40136719 C163.88297066 521.48202008 162.03341315 522.55009008 160.17724609 523.60644531 C158.84234131 524.37746582 158.84234131 524.37746582 157.48046875 525.1640625 C156.68922607 525.61475098 155.8979834 526.06543945 155.08276367 526.52978516 C152.88196713 527.90812672 152.88196713 527.90812672 151.4699707 530.17724609 C150.98488037 530.77875488 150.49979004 531.38026367 150 532 C148.68 532 147.36 532 146 532 C143.78940631 532.92632927 143.78940631 532.92632927 141.52734375 534.28125 C140.64135498 534.78551514 139.75536621 535.28978027 138.8425293 535.80932617 C137.88386963 536.36724854 136.92520996 536.9251709 135.9375 537.5 C134.93178955 538.07661377 133.9260791 538.65322754 132.88989258 539.24731445 C123.78241521 544.49075983 114.753795 549.86901535 105.72729492 555.25024414 C98.57202572 559.507307 91.3629549 563.63356626 84.06323242 567.63671875 C79.64999101 570.06315901 75.30463936 572.573519 71 575.1875 C60.94030014 581.29502717 50.71238495 587.11396369 40.51074219 592.97998047 C36.93491351 595.0366883 33.36168377 597.09788312 29.7890625 599.16015625 C29.20113419 599.49952209 28.61320587 599.83888794 28.00746155 600.1885376 C26.27578617 601.18815443 24.54414281 602.18782675 22.8125 603.1875 C16.56183387 606.79568012 16.56183387 606.79568012 13.56494141 608.50537109 C12.02019794 609.40551572 10.49032425 610.33304439 8.99365234 611.31103516 C4.74397067 614.04631096 0.94902167 614.96250757 -4 614 C-6.90182807 612.90226424 -9.47379651 611.41391633 -12.125 609.8125 C-12.89650391 609.36543701 -13.66800781 608.91837402 -14.46289062 608.45776367 C-16.98601384 606.98937632 -19.49328694 605.49620331 -22 604 C-23.71557016 602.98860621 -25.43172354 601.9782011 -27.1484375 600.96875 C-30.80829709 598.81287293 -34.4618893 596.64674422 -38.11328125 594.4765625 C-44.27338449 590.82544063 -50.4782034 587.25411624 -56.6875 583.6875 C-65.66637365 578.52651492 -74.5994933 573.29495358 -83.5 568 C-93.43645122 562.08984581 -103.41904761 556.26706326 -113.44140625 550.50390625 C-120.64326583 546.36240104 -127.82790124 542.19281944 -135 538 C-146.53692371 531.25865327 -158.10851956 524.57832974 -169.68701172 517.90869141 C-190.95800235 505.6539674 -212.22531424 493.39348943 -233.41455078 480.99780273 C-238.33860562 478.12058016 -243.2733683 475.26897679 -248.24926758 472.48242188 C-266.19615187 462.4115444 -266.19615187 462.4115444 -269 454 C-269.10601967 451.138589 -269.15485276 448.30091094 -269.15821838 445.43904114 C-269.16315636 444.55443055 -269.16809434 443.66981997 -269.17318195 442.758403 C-269.1885876 439.78270355 -269.19692588 436.80702572 -269.20532227 433.83129883 C-269.21489838 431.70280262 -269.2249083 429.57430832 -269.23532104 427.44581604 C-269.26240508 421.65693432 -269.2833957 415.86804441 -269.30332303 410.07913423 C-269.32516101 404.03326561 -269.35256039 397.9874223 -269.37937927 391.9415741 C-269.42933578 380.48816402 -269.47426363 369.03473991 -269.51740164 357.58130234 C-269.56674875 344.54397921 -269.62167623 331.50668147 -269.67708123 318.46938288 C-269.79094668 291.64627894 -269.89777578 264.82315065 -270 238 C-270.33 238 -270.66 238 -271 238 C-271 234.37 -271 230.74 -271 227 C-270.67 227 -270.34 227 -270 227 C-270.00079559 226.19313248 -270.00159119 225.38626495 -270.00241089 224.5549469 C-270.00462637 216.91969481 -269.97802339 209.28532591 -269.9197216 201.65031528 C-269.89075179 197.72578261 -269.87260185 193.80184339 -269.87988281 189.87719727 C-269.88651076 186.0836304 -269.86379795 182.2912326 -269.82144547 178.49790764 C-269.81037521 177.05681462 -269.80955891 175.61560214 -269.81957626 174.17450142 C-269.87272052 165.3982825 -269.29016019 158.6377724 -263 152 C-260.73854563 150.17431706 -258.85740823 148.83199629 -256.375 147.4375 C-255.70388184 147.03877686 -255.03276367 146.64005371 -254.34130859 146.22924805 C-251.90759966 144.79516469 -249.45508495 143.39716653 -247 142 C-244.88000131 140.77900522 -242.76022458 139.557625 -240.640625 138.3359375 C-235.88007339 135.60089447 -231.11115337 132.88121452 -226.3359375 130.171875 C-219.28622088 126.17152997 -212.26585541 122.12192383 -205.25 118.0625 C-195.87076032 112.64043577 -186.46292034 107.27464895 -177 102 C-177.33 101.34 -177.66 100.68 -178 100 C-177.31421875 99.90589844 -176.6284375 99.81179688 -175.921875 99.71484375 C-172.3801266 98.84834648 -169.41884821 97.3069394 -166.25 95.5625 C-165.59298096 95.20615479 -164.93596191 94.84980957 -164.2590332 94.48266602 C-158.05224586 91.08721841 -151.96601756 87.49335029 -145.8828125 83.8828125 C-140.13686551 80.47842888 -134.34963541 77.14622994 -128.5625 73.8125 C-127.4691333 73.182229 -126.3757666 72.55195801 -125.24926758 71.90258789 C-120.04217517 68.90188416 -114.83353657 65.90388945 -109.62321472 62.90879822 C-107.84870926 61.88849575 -106.07456263 60.86757224 -104.30053711 59.84643555 C-102.07682993 58.56666679 -99.85242351 57.28811196 -97.62719727 56.01098633 C-93.15930425 53.43888582 -88.7245536 50.85097815 -84.3828125 48.0703125 C-81 46 -81 46 -79 46 C-78.67 45.34 -78.34 44.68 -78 44 C-76.14776163 43.05249238 -74.29130802 42.11252185 -72.41699219 41.20947266 C-67.86007031 38.92917054 -63.51247317 36.27473356 -59.125 33.6875 C-56.99250219 32.43696321 -54.85967796 31.18698293 -52.7265625 29.9375 C-51.62473633 29.29167969 -50.52291016 28.64585937 -49.38769531 27.98046875 C-40.58532339 22.83454478 -31.74748543 17.74992045 -22.90527344 12.67285156 C-20.24680621 11.1421106 -17.5952114 9.60019484 -14.9453125 8.0546875 C-13.50543395 7.22356734 -12.06534888 6.39280479 -10.625 5.5625 C-9.68043945 5.00502075 -9.68043945 5.00502075 -8.71679688 4.4362793 C-5.42543349 2.55464268 -3.91681522 2 0 2 C0 1.34 0 0.68 0 0 Z M-5.09375 41.31640625 C-5.94606201 41.82574707 -6.79837402 42.33508789 -7.67651367 42.85986328 C-8.60826416 43.4217334 -9.54001465 43.98360352 -10.5 44.5625 C-12.50577792 45.76034199 -14.51232051 46.95690427 -16.51953125 48.15234375 C-18.10628662 49.09762939 -18.10628662 49.09762939 -19.72509766 50.06201172 C-25.18691667 53.29415123 -30.68646548 56.46021031 -36.1875 59.625 C-37.28505615 60.25696289 -38.3826123 60.88892578 -39.51342773 61.54003906 C-41.6679739 62.78038449 -43.82267338 64.02046365 -45.97753906 65.26025391 C-56.75071571 71.46135704 -67.50730621 77.68957396 -78.21240234 84.00756836 C-82.5285703 86.55301361 -86.85454562 89.08087474 -91.1875 91.59765625 C-92.79975464 92.53484497 -92.79975464 92.53484497 -94.44458008 93.4909668 C-96.56329417 94.72187221 -98.68288621 95.95126802 -100.8034668 97.17895508 C-106.68789874 100.58372536 -106.68789874 100.58372536 -112.41015625 104.25 C-114.80422342 105.86771055 -117.20175189 107.26759986 -119.75 108.625 C-132.76830749 115.64964378 -145.62985492 122.91153992 -158.39111328 130.39331055 C-166.41514265 135.09223174 -174.48159819 139.7124815 -182.5625 144.3125 C-191.01924034 149.12768642 -199.43314032 153.99713388 -207.75 159.05078125 C-212.31081081 161.78617138 -216.94282336 164.38778093 -221.5859375 166.98046875 C-222.71257812 167.64691406 -223.83921875 168.31335938 -225 169 C-225.74543723 169.37369451 -226.49087446 169.74738902 -227.2589007 170.13240761 C-232.05884139 172.77066888 -232.05884139 172.77066888 -234.85332096 177.28236687 C-235.20244563 180.12993939 -235.26221439 182.86341577 -235.23033142 185.73243713 C-235.25354369 186.81461626 -235.27675596 187.89679538 -235.30067164 189.0117678 C-235.36703339 192.63955563 -235.36900325 196.26446984 -235.37084961 199.89282227 C-235.40432758 202.49331893 -235.4414402 205.09377097 -235.48191833 207.69416809 C-235.58246821 214.76057778 -235.61615164 221.82636217 -235.6370399 228.89339185 C-235.65057846 233.31017743 -235.67896508 237.72678763 -235.71054268 242.14347649 C-235.79617262 254.38410206 -235.86789681 266.62456261 -235.87905025 278.86550999 C-235.88012768 280.03986533 -235.88012768 280.03986533 -235.88122687 281.23794502 C-235.88261664 282.82493554 -235.8839931 284.41192608 -235.88535636 285.99891663 C-235.88604765 286.78664963 -235.88673894 287.57438263 -235.88745117 288.38598633 C-235.88813249 289.17468681 -235.8888138 289.9633873 -235.88951577 290.7759878 C-235.90326614 303.54615449 -236.02083674 316.31302398 -236.18458109 329.08206523 C-236.35154399 342.20759361 -236.43563609 355.33149157 -236.4359799 368.4581055 C-236.43798232 375.8226249 -236.47432315 383.18326047 -236.60114861 390.54678535 C-236.7199834 397.47911824 -236.72439381 404.40362463 -236.65300941 411.33657646 C-236.64471731 413.87429019 -236.6737488 416.41245422 -236.74364471 418.94921875 C-237.1496094 430.28225753 -237.1496094 430.28225753 -234 441 C-228.61395249 446.6566869 -221.65322506 449.84771376 -214.56067669 452.87536132 C-211.27759339 454.31727801 -208.35225053 456.06430354 -205.3203125 457.97265625 C-204.43472656 458.49923828 -203.54914063 459.02582031 -202.63671875 459.56835938 C-200.90639787 460.59767156 -199.1773014 461.62904391 -197.44921875 462.66210938 C-192.99955418 465.30347787 -188.53558427 467.77960932 -183.88623047 470.04956055 C-180.6675136 471.67141723 -177.59205674 473.5260388 -174.5 475.375 C-173.00548136 476.26087744 -171.51067238 477.14626518 -170.015625 478.03125 C-169.21318359 478.50691406 -168.41074219 478.98257812 -167.58398438 479.47265625 C-154.48004398 487.21814483 -141.30860242 494.84842145 -128.08398438 502.38574219 C-107.63747643 514.0419466 -87.25591958 525.80784012 -67.09887695 537.95849609 C-63.92878377 539.86353262 -60.74520847 541.72603343 -57.5 543.5 C-53.75305637 545.54943326 -50.09214815 547.72908413 -46.4375 549.9375 C-36.68762659 555.82589865 -26.84679514 561.56266013 -16.97900391 567.25097656 C-14.89003861 568.47744332 -12.82073619 569.73773006 -10.76708984 571.02246094 C-9.71344238 571.6724707 -8.65979492 572.32248047 -7.57421875 572.9921875 C-6.1504895 573.89106689 -6.1504895 573.89106689 -4.69799805 574.80810547 C-1.46384351 576.23685784 -0.30249759 576.1587034 3 575 C4.93527142 574.04545333 6.8329214 573.01290909 8.69921875 571.9296875 C10.37056885 570.96675781 10.37056885 570.96675781 12.07568359 569.984375 C13.27969103 569.28136754 14.48362811 568.57823956 15.6875 567.875 C16.93532775 567.15298543 18.1835432 566.43164054 19.43212891 565.7109375 C22.01113886 564.22085935 24.58781978 562.72687101 27.16259766 561.22949219 C30.81577156 559.10545473 34.47504777 556.99216087 38.13671875 554.8828125 C42.54582983 552.34253063 46.95344995 549.79971001 51.359375 547.25390625 C55.6068561 544.80124321 59.86174278 542.36261371 64.125 539.9375 C71.22148121 535.89233135 78.26919962 531.76427466 85.32128906 527.64233398 C90.86476387 524.40461709 96.41430405 521.17796903 101.9765625 517.97265625 C102.55474731 517.63946884 103.13293213 517.30628143 103.7286377 516.96299744 C106.51641895 515.35711744 109.30513134 513.75287343 112.09472656 512.15014648 C117.62756334 508.96644466 123.12525347 505.73454484 128.59179688 502.43847656 C132.63184166 500.02526246 136.72176855 497.70090905 140.8125 495.375 C142.66016191 494.32162451 144.50781799 493.2682388 146.35546875 492.21484375 C147.29052246 491.6822998 148.22557617 491.14975586 149.18896484 490.60107422 C161.7647672 483.43830612 174.32303002 476.24691311 186.84375 468.98828125 C191.82128211 466.10276966 196.80060076 463.2203676 201.78271484 460.34277344 C204.03706362 459.03988722 206.29001569 457.73458108 208.54150391 456.42675781 C213.38206493 453.62262045 218.22347204 450.84922838 223.1796875 448.25390625 C223.9322583 447.85445801 224.6848291 447.45500977 225.46020508 447.04345703 C226.81251253 446.33204689 228.17389127 445.637487 229.5456543 444.96435547 C231.54544691 443.96643451 231.54544691 443.96643451 234 442 C235.31020448 436.96369002 235.12925817 431.83166978 235.09765625 426.6640625 C235.0962413 425.78471039 235.09482635 424.90535828 235.09336853 423.99935913 C235.08779877 421.20787058 235.0752519 418.41646406 235.0625 415.625 C235.05748109 413.72526158 235.05291887 411.8255219 235.04882812 409.92578125 C235.03783925 405.28382286 235.02059557 400.64192531 235 396 C234.34 396 233.68 396 233 396 C233.66 394.02 234.32 392.04 235 390 C234.34 390 233.68 390 233 390 C233 389.34 233 388.68 233 388 C233.66 388 234.32 388 235 388 C235 370.18 235 352.36 235 334 C234.34 334 233.68 334 233 334 C233.66 333.34 234.32 332.68 235 332 C235.2928626 329.53231644 235.2928626 329.53231644 235.22705078 326.63232422 C235.22689972 325.51131317 235.22674866 324.39030212 235.22659302 323.23532104 C235.21110916 321.41340744 235.21110916 321.41340744 235.1953125 319.5546875 C235.1924826 318.31453888 235.18965271 317.07439026 235.18673706 315.79666138 C235.17742174 312.49875367 235.1594489 309.20104028 235.1373291 305.90319824 C235.11687474 302.5383543 235.10773623 299.17348193 235.09765625 295.80859375 C235.07556519 289.20565277 235.04206483 282.60284229 235 276 C234.34 276 233.68 276 233 276 C233.32742188 275.44828125 233.65484375 274.8965625 233.9921875 274.328125 C235.16787715 271.61219077 235.20248638 269.69448241 235.125 266.75 C235.10695313 265.85796875 235.08890625 264.9659375 235.0703125 264.046875 C235.04710937 263.37140625 235.02390625 262.6959375 235 262 C234.34 262 233.68 262 233 262 C233 261.34 233 260.68 233 260 C233.66 260 234.32 260 235 260 C235 258.741875 235 257.48375 235 256.1875 C235 252.20941843 235.00496501 248.23188829 235.03515625 244.25390625 C235.04446245 242.35677176 235.0535693 240.45963629 235.0625 238.5625 C235.07087891 237.60794922 235.07925781 236.65339844 235.08789062 235.66992188 C235.09111328 234.74888672 235.09433594 233.82785156 235.09765625 232.87890625 C235.10289307 232.0391626 235.10812988 231.19941895 235.11352539 230.33422852 C235.08660928 228.02045376 235.08660928 228.02045376 234.43139648 225.94506836 C233.91076715 223.59766941 234.40177849 222.31603518 235 220 C238.53560957 195.30779674 238.53560957 195.30779674 233.25537109 171.85205078 C228.4853026 167.19202087 222.55099811 165.23935186 216.30712891 163.21289062 C210.39117174 161.04321137 205.18329112 157.62960422 199.8125 154.375 C197.60613624 153.09719871 195.39654825 151.82494661 193.18359375 150.55859375 C187.91032297 147.52466818 182.64032672 144.485191 177.375 141.4375 C176.62951904 141.00606689 175.88403809 140.57463379 175.1159668 140.13012695 C169.8040048 137.05269213 164.50216145 133.9581375 159.2019043 130.8605957 C150.51192266 125.78230365 141.80882615 120.73071504 133.0625 115.75 C126.24091585 111.86472082 119.44763309 107.93735663 112.6887207 103.9440918 C105.18039099 99.50860076 97.64408231 95.12130432 90.1081543 90.73291016 C89.12886963 90.16233887 88.14958496 89.59176758 87.140625 89.00390625 C85.83399902 88.24315796 85.83399902 88.24315796 84.50097656 87.46704102 C82.75478609 86.44274791 81.03006161 85.38135907 79.32324219 84.29272461 C77.0992716 82.75155557 77.0992716 82.75155557 74.6875 83.3125 C74.130625 83.539375 73.57375 83.76625 73 84 C73 83.01 73 82.02 73 81 C71.15277599 79.49964659 71.15277599 79.49964659 68.6640625 78.171875 C67.2406958 77.35481079 67.2406958 77.35481079 65.78857422 76.52124023 C64.74459473 75.93673096 63.70061523 75.35222168 62.625 74.75 C61.54879395 74.13519775 60.47258789 73.52039551 59.36376953 72.88696289 C57.0749642 71.57985365 54.78439808 70.27660844 52.49023438 68.97900391 C46.9322526 65.83258628 41.40599828 62.63101779 35.875 59.4375 C34.26842529 58.51360474 34.26842529 58.51360474 32.62939453 57.57104492 C27.24433924 54.47079282 21.87733964 51.34427813 16.5390625 48.1640625 C15.52086426 47.55763916 14.50266602 46.95121582 13.45361328 46.32641602 C11.52509044 45.17469031 9.59887089 44.01909656 7.67529297 42.85913086 C6.82338379 42.35003174 5.97147461 41.84093262 5.09375 41.31640625 C3.97516602 40.64266968 3.97516602 40.64266968 2.83398438 39.95532227 C-0.52928455 38.20339584 -2.04520491 39.48023092 -5.09375 41.31640625 Z " fill="#93C74A" transform="translate(511,204)"/>
<path d="M0 0 C0.66 0.33 1.32 0.66 2 1 C3.8999675 1.11823321 5.80365634 1.17900709 7.70703125 1.2109375 C8.85107422 1.23929687 9.99511719 1.26765625 11.17382812 1.296875 C13.58774019 1.34870349 16.00182522 1.39304938 18.41601562 1.4296875 C19.56392578 1.460625 20.71183594 1.4915625 21.89453125 1.5234375 C22.94487549 1.54325684 23.99521973 1.56307617 25.07739258 1.58349609 C28.41947549 2.0597799 30.29708373 3.00274225 33 5 C36.76393524 10.64590286 36.14650547 17.94811383 36.12698364 24.56103516 C36.12854363 25.38554263 36.13010362 26.21005011 36.13171089 27.05954266 C36.13567669 29.80273451 36.13254836 32.54587031 36.12939453 35.2890625 C36.13075062 37.26425712 36.13253172 39.23945149 36.13470459 41.21464539 C36.13925663 46.56838732 36.13749788 51.92210994 36.1343255 57.2758522 C36.13178756 62.89378154 36.1341437 68.51170927 36.13571167 74.12963867 C36.13753037 83.57161759 36.13513614 93.01358868 36.13037109 102.45556641 C36.12494166 113.33901474 36.12668273 124.22244431 36.1321975 135.10589218 C36.13675223 144.47268203 36.13736728 153.83946626 36.13475883 163.20625687 C36.13320739 168.79019732 36.13297078 174.37412898 36.13629532 179.95806885 C36.13920796 185.21776508 36.13713668 190.47743743 36.13140106 195.73713112 C36.13009097 197.65581027 36.13043736 199.57449147 36.13266373 201.49316978 C36.1669969 234.11848216 36.1669969 234.11848216 33 239 C29.51043707 241.60436765 25.5286653 241.32278265 21.34765625 241.3359375 C20.61050888 241.3425943 19.87336151 241.3492511 19.11387634 241.35610962 C17.5581206 241.36621333 16.00232172 241.37092734 14.4465332 241.37060547 C12.07365183 241.37497944 9.70263075 241.41132091 7.33007812 241.44921875 C5.8151105 241.45508742 4.30013408 241.45905648 2.78515625 241.4609375 C2.0798024 241.47530853 1.37444855 241.48967957 0.64772034 241.50448608 C-4.17765558 241.45999848 -6.61392049 240.41913192 -10 237 C-11.19330667 234.61338665 -11.15615459 233.08771763 -11.20532227 230.42138672 C-11.22525742 229.44618576 -11.24519257 228.4709848 -11.26573181 227.4662323 C-11.29081566 225.83939262 -11.29081566 225.83939262 -11.31640625 224.1796875 C-11.33727798 223.02459183 -11.35814972 221.86949615 -11.37965393 220.67939758 C-11.43549726 217.43508183 -11.48597679 214.19074503 -11.53263092 210.94628525 C-11.56265796 208.86404615 -11.59409543 206.78183161 -11.62567139 204.69961548 C-12.2554324 162.41064159 -12.18316234 120.11487509 -12.01115417 77.82267761 C-12.00023087 75.05842325 -11.9904958 72.29416709 -11.9810791 69.52990723 C-11.94648111 59.74537768 -11.88887063 49.96150317 -11.79046631 40.17739868 C-11.76184603 37.29129943 -11.74183092 34.40534854 -11.72955322 31.51913452 C-11.71212214 27.60223034 -11.66285295 23.68611881 -11.609375 19.76953125 C-11.60813629 18.63480377 -11.60689758 17.50007629 -11.60562134 16.33096313 C-11.46253496 8.81669851 -11.46253496 8.81669851 -9.19628906 4.81518555 C-6.2410361 2.37273271 -3.76481663 2.21720096 0 2 C0 1.34 0 0.68 0 0 Z " fill="#94C84A" transform="translate(404,392)"/>
<path d="M0 0 C1.4489925 -0.01152829 2.89794225 -0.03199399 4.34667969 -0.06152344 C6.44462825 -0.10427535 8.54131796 -0.1203768 10.63964844 -0.13061523 C11.89310059 -0.14519775 13.14655273 -0.15978027 14.43798828 -0.17480469 C18.39664867 0.37796053 20.01987137 1.47911727 22.80371094 4.29516602 C23.72949219 6.87329102 23.72949219 6.87329102 24.11621094 9.54516602 C24.25671875 10.43719727 24.39722656 11.32922852 24.54199219 12.24829102 C24.62835937 12.92375977 24.71472656 13.59922852 24.80371094 14.29516602 C25.13371094 14.29516602 25.46371094 14.29516602 25.80371094 14.29516602 C25.80371094 16.27516602 25.80371094 18.25516602 25.80371094 20.29516602 C25.47371094 20.29516602 25.14371094 20.29516602 24.80371094 20.29516602 C24.80475185 21.27958947 24.80475185 21.27958947 24.80581379 22.28390026 C24.84798447 64.37568746 24.80336963 106.46677521 24.56799126 148.55800056 C24.522355 156.76049849 24.48286311 164.96294001 24.45727539 173.16552734 C24.43433145 180.52048367 24.40109597 187.87530503 24.35500938 195.23015422 C24.33126991 199.06852857 24.31240887 202.90677236 24.30609703 206.74521828 C24.29896026 210.95453217 24.2686141 215.16336442 24.23608398 219.37255859 C24.23751907 220.61610107 24.23895416 221.85964355 24.24043274 223.14086914 C24.22789459 224.2808284 24.21535645 225.42078766 24.20243835 226.59529114 C24.19552491 228.07477596 24.19552491 228.07477596 24.18847179 229.58414936 C23.72995443 232.81485276 22.7243759 234.67422455 20.80371094 237.29516602 C17.2261205 239.6802263 14.63581268 239.60142593 10.50292969 239.59594727 C9.78893509 239.60023239 9.07494049 239.60451752 8.33930969 239.6089325 C6.82883767 239.6146719 5.31833802 239.61517891 3.80786133 239.61083984 C1.50976636 239.60769144 -0.78702619 239.63110123 -3.08496094 239.65649414 C-4.55566245 239.65876852 -6.0263674 239.65946999 -7.49707031 239.65844727 C-8.17852615 239.66765701 -8.85998199 239.67686676 -9.56208801 239.68635559 C-14.61738707 239.63795275 -16.30032615 238.74314747 -21.19628906 236.29516602 C-21.19628906 207.91516602 -21.19628906 179.53516602 -21.19628906 150.29516602 C-21.52628906 150.29516602 -21.85628906 150.29516602 -22.19628906 150.29516602 C-22.19628906 145.96183268 -22.19628906 141.62849935 -22.19628906 137.29516602 C-21.86628906 137.29516602 -21.53628906 137.29516602 -21.19628906 137.29516602 C-21.19628906 128.38516602 -21.19628906 119.47516602 -21.19628906 110.29516602 C-21.52628906 110.29516602 -21.85628906 110.29516602 -22.19628906 110.29516602 C-22.19628906 105.62849935 -22.19628906 100.96183268 -22.19628906 96.29516602 C-22.29167969 95.35930664 -22.38707031 94.42344727 -22.48535156 93.45922852 C-22.59621094 92.29133789 -22.70707031 91.12344727 -22.82128906 89.92016602 C-22.93730469 88.75743164 -23.05332031 87.59469727 -23.17285156 86.39672852 C-23.19628906 83.29516602 -23.19628906 83.29516602 -21.19628906 80.29516602 C-21.52628906 80.29516602 -21.85628906 80.29516602 -22.19628906 80.29516602 C-22.19628906 77.98516602 -22.19628906 75.67516602 -22.19628906 73.29516602 C-21.86628906 73.29516602 -21.53628906 73.29516602 -21.19628906 73.29516602 C-21.19628906 69.66516602 -21.19628906 66.03516602 -21.19628906 62.29516602 C-21.52628906 62.29516602 -21.85628906 62.29516602 -22.19628906 62.29516602 C-22.19628906 59.98516602 -22.19628906 57.67516602 -22.19628906 55.29516602 C-21.86628906 55.29516602 -21.53628906 55.29516602 -21.19628906 55.29516602 C-21.19264343 54.69239334 -21.1889978 54.08962067 -21.1852417 53.46858215 C-21.14340514 47.19025224 -21.07405138 40.91265258 -20.98876953 34.63476562 C-20.96055793 32.29239203 -20.93934438 29.94992321 -20.92529297 27.60742188 C-20.90386682 24.23851763 -20.85721591 20.87075865 -20.80566406 17.50219727 C-20.80443542 16.45618851 -20.80320679 15.41017975 -20.80194092 14.33247375 C-20.71201985 9.86055415 -20.64988439 7.06430332 -18.34570312 3.15722656 C-13.33268311 -1.18560665 -6.28261208 0.0348402 0 0 Z " fill="#94C84A" transform="translate(510.1962890625,393.704833984375)"/>
<path d="M0 0 C2.14651064 0.00316451 4.29164725 -0.02034251 6.43798828 -0.0456543 C7.81168447 -0.04792724 9.18538434 -0.04863081 10.55908203 -0.04760742 C11.79980469 -0.05058838 13.04052734 -0.05356934 14.31884766 -0.05664062 C17.90924027 0.34430758 19.79148944 1.15219555 22.65283203 3.31567383 C23.88074404 5.77149785 23.80969169 7.43070899 23.85617065 10.1783905 C23.88548235 11.72442616 23.88548235 11.72442616 23.9153862 13.30169487 C23.93170719 14.43963556 23.94802818 15.57757626 23.96484375 16.75 C23.98533405 17.94759005 24.00582436 19.14518009 24.02693558 20.37906075 C24.08157215 23.69417288 24.1312597 27.0092781 24.17779779 30.32450891 C24.20764609 32.43007031 24.23911298 34.53560223 24.27096176 36.64113426 C24.75582799 69.00563657 24.8069549 101.36925106 24.7814014 133.73676193 C24.77701987 139.93927459 24.78019621 146.14176721 24.78502953 152.34427863 C24.7901686 159.22835951 24.78955969 166.11242969 24.7866478 172.99651146 C24.78556147 175.85263691 24.7864236 178.70875035 24.78912735 181.56487465 C24.7961356 190.48260014 24.74688704 199.39845632 24.65283203 208.31567383 C24.64494408 209.56162197 24.63705612 210.80757011 24.62892914 212.09127426 C24.59823562 215.70768254 24.53298554 219.32179182 24.45703125 222.9375 C24.45182528 224.01686231 24.4466193 225.09622461 24.44125557 226.20829487 C24.30412498 231.01982325 24.22952432 233.52997067 21.32341003 237.48934937 C17.89513561 239.83383863 15.10118407 239.98900031 11.08642578 239.87426758 C10.37051773 239.87193619 9.65460968 239.8696048 8.91700745 239.86720276 C7.40996308 239.85749619 5.90295352 239.83577987 4.39624023 239.80273438 C2.09384971 239.75324943 -0.20640248 239.74124663 -2.50927734 239.7355957 C-3.97739896 239.72151063 -5.44550209 239.70530653 -6.91357422 239.68676758 C-7.59907852 239.68140488 -8.28458282 239.67604218 -8.99085999 239.67051697 C-12.55891072 239.58197315 -15.42571642 239.47422316 -18.34716797 237.31567383 C-20.59597151 233.85206132 -20.62535165 230.84523369 -20.68188477 226.77392578 C-20.69931591 225.78211965 -20.69931591 225.78211965 -20.71709919 224.77027702 C-20.75345772 222.53152866 -20.77517012 220.29289503 -20.79638672 218.05395508 C-20.81831393 216.41627796 -20.84079218 214.77860815 -20.86376953 213.14094543 C-20.92364248 208.59743604 -20.96826063 204.05389102 -21.00857162 199.51016998 C-21.0346623 196.62880041 -21.06406219 193.74748031 -21.09414673 190.8661499 C-21.48136114 152.7317237 -21.32561848 114.59782176 -21.07900661 76.46310562 C-21.04376671 70.99044422 -21.01280519 65.51776915 -20.98324585 60.04507446 C-20.94641398 53.30674801 -20.90134634 46.56852967 -20.84615171 39.83032781 C-20.81760866 36.34344029 -20.7919395 32.8565992 -20.77420044 29.36963844 C-20.75447646 25.55221169 -20.71903963 21.73502365 -20.68188477 17.91772461 C-20.678157 16.79226384 -20.67442923 15.66680307 -20.67058849 14.50723743 C-20.65797639 13.4792488 -20.64536428 12.45126017 -20.63237 11.39212036 C-20.62554042 10.5024161 -20.61871084 9.61271183 -20.61167431 8.69604683 C-20.32477619 6.11416338 -19.73638034 4.50118874 -18.34716797 2.31567383 C-12.77424444 -0.82938586 -6.2093568 -0.0191954 0 0 Z " fill="#94C84B" transform="translate(604.34716796875,393.684326171875)"/>
<path d="M0 0 C1.4489925 -0.01152829 2.89794225 -0.03199399 4.34667969 -0.06152344 C6.44462825 -0.10427535 8.54131796 -0.1203768 10.63964844 -0.13061523 C11.89310059 -0.14519775 13.14655273 -0.15978027 14.43798828 -0.17480469 C18.39664867 0.37796053 20.01987137 1.47911727 22.80371094 4.29516602 C23.72949219 6.87329102 23.72949219 6.87329102 24.11621094 9.54516602 C24.25671875 10.43719727 24.39722656 11.32922852 24.54199219 12.24829102 C24.62835937 12.92375977 24.71472656 13.59922852 24.80371094 14.29516602 C25.13371094 14.29516602 25.46371094 14.29516602 25.80371094 14.29516602 C25.80371094 16.27516602 25.80371094 18.25516602 25.80371094 20.29516602 C25.47371094 20.29516602 25.14371094 20.29516602 24.80371094 20.29516602 C24.80496003 21.27938128 24.80496003 21.27938128 24.80623436 22.28347969 C24.85687074 64.39308212 24.77756649 106.50094432 24.51617813 148.60981369 C24.46008161 157.66103264 24.410999 166.71223431 24.37056792 175.76353729 C24.34089711 182.28381982 24.30374958 188.80403345 24.26092088 195.32424271 C24.23587199 199.1664744 24.21401409 203.00865779 24.20036697 206.85094833 C24.18523362 211.06277608 24.1546455 215.27435132 24.12255859 219.48608398 C24.12039841 220.73322174 24.11823822 221.9803595 24.11601257 223.26528931 C24.10484909 224.4038739 24.09368561 225.5424585 24.08218384 226.71554565 C24.0738877 228.19641316 24.0738877 228.19641316 24.06542397 229.70719719 C23.79667943 232.36469761 23.15949022 234.01674846 21.80371094 236.29516602 C20.11532426 232.91839266 20.67894489 229.0877554 20.69691467 225.37438965 C20.69774973 223.97124284 20.69774973 223.97124284 20.69860166 222.53974962 C20.70165265 219.38593036 20.71184548 216.23217321 20.72192383 213.07836914 C20.72547774 210.8251909 20.72856433 208.57201188 20.73121643 206.3188324 C20.73778024 201.45753562 20.74734783 196.59625703 20.7591114 191.73497009 C20.77734968 184.05553584 20.78698842 176.3761061 20.79502869 168.69665527 C20.80694895 157.93603039 20.82093252 147.17541253 20.83813477 136.41479492 C20.83922489 135.73159976 20.84031501 135.0484046 20.84143817 134.34450656 C20.85705478 124.64494097 20.87564825 114.94538333 20.89543604 105.24582547 C20.89682935 104.56263031 20.89822267 103.87943515 20.8996582 103.17553711 C20.90105173 102.49317138 20.90244526 101.81080564 20.90388102 101.10776216 C20.92689236 89.74202845 20.94210675 78.37630381 20.95121759 67.01054907 C20.9577794 59.36905672 20.97337756 51.72765152 20.99553502 44.08618927 C21.00722645 39.34103179 21.01063016 34.59589582 21.01163292 29.85072517 C21.01378897 27.64235381 21.01940975 25.43398284 21.02866364 23.22562981 C21.04076629 20.22232469 21.04071202 17.21926423 21.03749084 14.21594238 C21.04399865 13.33210515 21.05050645 12.44826791 21.05721146 11.53764772 C21.25266098 6.93770427 21.25266098 6.93770427 18.80371094 3.29516602 C16.07885366 3.11998855 13.45711732 3.06367468 10.73339844 3.09985352 C9.53905685 3.10409836 9.53905685 3.10409836 8.32058716 3.10842896 C5.77314331 3.11963962 3.22604883 3.1447454 0.67871094 3.17016602 C-1.04654441 3.18019469 -2.77180525 3.18932073 -4.49707031 3.19750977 C-8.7302782 3.2195818 -12.96322436 3.25411735 -17.19628906 3.29516602 C-14.6280419 -1.84132831 -5.12130525 0.02840018 0 0 Z " fill="#8DBE45" transform="translate(510.1962890625,393.704833984375)"/>
<path d="M0 0 C0.33 0 0.66 0 1 0 C1 74.25 1 148.5 1 225 C0.67 225 0.34 225 0 225 C-0.33 173.85 -0.66 122.7 -1 70 C-1.99 70.99 -1.99 70.99 -3 72 C-3 69.69 -3 67.38 -3 65 C-2.34 65 -1.68 65 -1 65 C-0.67 43.55 -0.34 22.1 0 0 Z " fill="#AAE356" transform="translate(491,402)"/>
<path d="M0 0 C0.33 0 0.66 0 1 0 C1.00331015 0.79514133 1.00662029 1.59028267 1.01003075 2.4095192 C1.0912105 21.74681711 1.18328641 41.08403495 1.28752708 60.42122269 C1.33767341 69.77249766 1.38411609 79.12376378 1.421875 88.47509766 C1.4547906 96.62462565 1.49461942 104.77408533 1.54279006 112.92353797 C1.56805935 117.23959295 1.58983936 121.55560258 1.60334396 125.87171173 C1.61616042 129.93300335 1.6382103 133.99413948 1.66738319 138.05534554 C1.67646223 139.54687636 1.68214997 141.03843222 1.68421364 142.52998924 C1.68753369 144.56488897 1.70418274 146.599754 1.7215271 148.63458252 C1.72705786 149.77391865 1.73258862 150.91325478 1.73828697 152.08711624 C1.99346837 154.9273025 2.52370883 156.59284784 4 159 C2.35 158.67 0.7 158.34 -1 158 C-1 129.62 -1 101.24 -1 72 C-1.33 72 -1.66 72 -2 72 C-2 67.66666667 -2 63.33333333 -2 59 C-1.67 59 -1.34 59 -1 59 C-1 50.09 -1 41.18 -1 32 C-1.33 32 -1.66 32 -2 32 C-2 27.33333333 -2 22.66666667 -2 18 C-2.10699219 17.08734375 -2.21398437 16.1746875 -2.32421875 15.234375 C-2.44410156 14.08453125 -2.56398438 12.9346875 -2.6875 11.75 C-2.81511719 10.61046875 -2.94273437 9.4709375 -3.07421875 8.296875 C-2.99086426 4.59418075 -2.2203719 2.91663667 0 0 Z " fill="#85B33F" transform="translate(490,472)"/>
<path d="M0 0 C0.33 0 0.66 0 1 0 C1 38.94 1 77.88 1 118 C0.67 118 0.34 118 0 118 C0 99.85 0 81.7 0 63 C-0.66 62.67 -1.32 62.34 -2 62 C-1.67 61.34 -1.34 60.68 -1 60 C-1.66 60 -2.32 60 -3 60 C-2.67 59.01 -2.34 58.02 -2 57 C-1.91518227 54.41369776 -1.88401771 51.85521944 -1.90234375 49.26953125 C-1.9037587 48.51911057 -1.90517365 47.76868988 -1.90663147 46.99552917 C-1.9122244 44.6011454 -1.92477556 42.20685547 -1.9375 39.8125 C-1.94251592 38.18815239 -1.94707866 36.56380332 -1.95117188 34.93945312 C-1.96219152 30.95959931 -1.97945127 26.97981556 -2 23 C-1.34 23 -0.68 23 0 23 C0 15.41 0 7.82 0 0 Z " fill="#A3D650" transform="translate(747,478)"/>
<path d="M0 0 C0.33 0 0.66 0 1 0 C1.01030746 0.68016174 1.02061493 1.36032349 1.03123474 2.06109619 C1.13933019 9.13376418 1.25392595 16.20630556 1.37231445 23.27880859 C1.41565349 25.91908115 1.4573293 28.55938155 1.49731445 31.19970703 C1.55504166 34.99259842 1.61872949 38.78534979 1.68359375 42.578125 C1.70030624 43.76053772 1.71701874 44.94295044 1.73423767 46.16119385 C1.75418289 47.26203308 1.77412811 48.36287231 1.79467773 49.49707031 C1.81022202 50.46525696 1.8257663 51.4334436 1.84178162 52.43096924 C1.98581916 54.7697422 2.39017779 56.74926757 3 59 C3.09108836 60.89410217 3.13006351 62.79121561 3.125 64.6875 C3.12757813 65.66074219 3.13015625 66.63398438 3.1328125 67.63671875 C3 70 3 70 2 71 C1.84193469 72.92478813 1.748865 74.8549921 1.68359375 76.78515625 C1.64169922 77.95498047 1.59980469 79.12480469 1.55664062 80.33007812 C1.49766602 82.17762695 1.49766602 82.17762695 1.4375 84.0625 C1.39431641 85.29806641 1.35113281 86.53363281 1.30664062 87.80664062 C1.20015802 90.87097335 1.09814576 93.93539073 1 97 C0.67 97 0.34 97 0 97 C0 64.99 0 32.98 0 0 Z " fill="#B2E653" transform="translate(437,437)"/>
<path d="M0 0 C0.66 0 1.32 0 2 0 C2 16.83 2 33.66 2 51 C1.67 51 1.34 51 1 51 C1 38.13 1 25.26 1 12 C0.34 11.67 -0.32 11.34 -1 11 C-1.02688151 9.35425434 -1.04634123 7.70838587 -1.0625 6.0625 C-1.07410156 5.14597656 -1.08570313 4.22945313 -1.09765625 3.28515625 C-1 1 -1 1 0 0 Z " fill="#9DD24E" transform="translate(393,488)"/>
<path d="M0 0 C0.33 0 0.66 0 1 0 C1.95066102 15.41967864 1.95066102 30.58032136 1 46 C0.67 46 0.34 46 0 46 C-0.19569589 43.43788925 -0.38180612 40.87567609 -0.5625 38.3125 C-0.61857422 37.59126953 -0.67464844 36.87003906 -0.73242188 36.12695312 C-0.99955159 32.22685936 -1.00887596 28.78888972 0 25 C-0.66 25 -1.32 25 -2 25 C-1.85795259 23.41632253 -1.71119847 21.83306682 -1.5625 20.25 C-1.48128906 19.36828125 -1.40007813 18.4865625 -1.31640625 17.578125 C-1.03761535 15.30649548 -0.61209423 13.20148177 0 11 C-0.66 11 -1.32 11 -2 11 C-2 10.34 -2 9.68 -2 9 C-1.34 9 -0.68 9 0 9 C0 6.03 0 3.06 0 0 Z " fill="#9AC23A" transform="translate(746,455)"/>
<path d="M0 0 C0.33 0 0.66 0 1 0 C1 10.89 1 21.78 1 33 C0.01 32.67 -0.98 32.34 -2 32 C-2 27.33333333 -2 22.66666667 -2 18 C-2.10699219 17.08734375 -2.21398437 16.1746875 -2.32421875 15.234375 C-2.44410156 14.08453125 -2.56398438 12.9346875 -2.6875 11.75 C-2.81511719 10.61046875 -2.94273437 9.4709375 -3.07421875 8.296875 C-2.99086426 4.59418075 -2.2203719 2.91663667 0 0 Z " fill="#94C23B" transform="translate(490,472)"/>
<path d="M0 0 C0.66 0.33 1.32 0.66 2 1 C3.95774069 1.15378852 5.92017352 1.24971463 7.8828125 1.31640625 C9.04941406 1.35830078 10.21601563 1.40019531 11.41796875 1.44335938 C12.64128906 1.48267578 13.86460937 1.52199219 15.125 1.5625 C16.35605469 1.60568359 17.58710938 1.64886719 18.85546875 1.69335938 C21.90352853 1.79968704 24.9516719 1.90171781 28 2 C28 2.33 28 2.66 28 3 C20.13359929 3.91613555 12.28718837 4.29346795 4.375 4.5625 C3.18003906 4.60568359 1.98507812 4.64886719 0.75390625 4.69335938 C-2.16397406 4.79840307 -5.08192438 4.90055648 -8 5 C-7.67 4.34 -7.34 3.68 -7 3 C-4.67843403 2.59270772 -2.3431213 2.25561323 0 2 C0 1.34 0 0.68 0 0 Z " fill="#90BB43" transform="translate(404,392)"/>
<path d="M0 0 C0.33 0 0.66 0 1 0 C1.19397476 1.97854258 1.38001321 3.9578648 1.5625 5.9375 C1.66691406 7.03964844 1.77132813 8.14179688 1.87890625 9.27734375 C1.91886719 10.17582031 1.95882813 11.07429688 2 12 C1.67 12.33 1.34 12.66 1 13 C0.84193469 14.92478813 0.748865 16.8549921 0.68359375 18.78515625 C0.64169922 19.95498047 0.59980469 21.12480469 0.55664062 22.33007812 C0.51732422 23.56177734 0.47800781 24.79347656 0.4375 26.0625 C0.39431641 27.29806641 0.35113281 28.53363281 0.30664062 29.80664062 C0.20015802 32.87097335 0.09814576 35.93539073 0 39 C-0.33 39 -0.66 39 -1 39 C-1.02496472 34.89234358 -1.04298366 30.78471736 -1.05493164 26.67700195 C-1.05991957 25.28343943 -1.06671231 23.88988202 -1.07543945 22.49633789 C-1.12158795 14.93069922 -1.05558458 7.50545574 0 0 Z " fill="#A8DA4C" transform="translate(438,495)"/>
<path d="M0 0 C0.66 0 1.32 0 2 0 C2 3.96 2 7.92 2 12 C1.01 11.67 0.02 11.34 -1 11 C-1.02688151 9.35425434 -1.04634123 7.70838587 -1.0625 6.0625 C-1.07410156 5.14597656 -1.08570313 4.22945313 -1.09765625 3.28515625 C-1 1 -1 1 0 0 Z " fill="#9FCB40" transform="translate(393,488)"/>
<path d="M0 0 C4.7517398 0.43197635 6.92000054 1.32769295 10 5 C9.01 5.495 9.01 5.495 8 6 C6.0546875 5.0390625 6.0546875 5.0390625 3.875 3.625 C3.15054687 3.16351562 2.42609375 2.70203125 1.6796875 2.2265625 C1.12539063 1.82179688 0.57109375 1.41703125 0 1 C0 0.67 0 0.34 0 0 Z " fill="#8EBE45" transform="translate(411,761)"/>
<path d="M0 0 C1.44096586 0.42594588 2.87768712 0.86626633 4.3125 1.3125 C5.11300781 1.55613281 5.91351563 1.79976562 6.73828125 2.05078125 C9.09964573 3.04182023 10.33879993 4.08074943 12 6 C8.55639368 6 7.25204608 5.20408468 4.3125 3.5 C3.50425781 3.0359375 2.69601562 2.571875 1.86328125 2.09375 C1.24839844 1.7328125 0.63351562 1.371875 0 1 C0 0.67 0 0.34 0 0 Z " fill="#89B846" transform="translate(397,753)"/>
<path d="M0 0 C0.66 0.33 1.32 0.66 2 1 C-1.07999946 4.67230705 -3.2482602 5.56802365 -8 6 C-5.63404067 3.38499232 -3.13950774 1.61000397 0 0 Z " fill="#8EBF45" transform="translate(406,264)"/>
<path d="M0 0 C7.63076923 1.47692308 7.63076923 1.47692308 9.5 4.125 C9.665 4.74375 9.83 5.3625 10 6 C6.40992874 4.66654496 3.20429093 3.1056769 0 1 C0 0.67 0 0.34 0 0 Z " fill="#8BBB46" transform="translate(385,746)"/>
<path d="M0 0 C-1.28524261 0.86380259 -2.57842419 1.71580369 -3.875 2.5625 C-4.59429687 3.03816406 -5.31359375 3.51382812 -6.0546875 4.00390625 C-6.69664062 4.33261719 -7.33859375 4.66132813 -8 5 C-8.66 4.67 -9.32 4.34 -10 4 C-4.4 -2.2 -4.4 -2.2 0 0 Z " fill="#89BA4B" transform="translate(305,363)"/>
<path d="M0 0 C3.59391114 1.33488128 6.75490696 2.96022723 10 5 C8.1875 5.625 8.1875 5.625 6 6 C5.01 5.34 4.02 4.68 3 4 C3 3.34 3 2.68 3 2 C2.01 1.67 1.02 1.34 0 1 C0 0.67 0 0.34 0 0 Z " fill="#8CBC46" transform="translate(572,240)"/>
<path d="M0 0 C0.99 0 1.98 0 3 0 C4.125 5.75 4.125 5.75 3 8 C2.01 8 1.02 8 0 8 C0.66 6.02 1.32 4.04 2 2 C1.34 2 0.68 2 0 2 C0 1.34 0 0.68 0 0 Z " fill="#ADCD37" transform="translate(744,592)"/>
<path d="M0 0 C2.3431213 0.25561323 4.67843403 0.59270772 7 1 C8.24546405 3.49092811 7.7767578 4.41080733 7 7 C6.34 6.67 5.68 6.34 5 6 C5 5.34 5 4.68 5 4 C3.35178756 2.96986723 1.68496298 1.96885372 0 1 C0 0.67 0 0.34 0 0 Z " fill="#92BF40" transform="translate(740,375)"/>
<path d="M0 0 C0.66 0.33 1.32 0.66 2 1 C1.01 1.33 0.02 1.66 -1 2 C-1 2.66 -1 3.32 -1 4 C-4 6 -4 6 -6.1875 5.625 C-6.785625 5.41875 -7.38375 5.2125 -8 5 C-6.71475739 4.13619741 -5.42157581 3.28419631 -4.125 2.4375 C-3.04605469 1.72400391 -3.04605469 1.72400391 -1.9453125 0.99609375 C-1.30335938 0.66738281 -0.66140625 0.33867187 0 0 Z " fill="#8EBE46" transform="translate(271,342)"/>
<path d="M0 0 C2.64 0 5.28 0 8 0 C5.47211993 2.79872437 3.79588866 4.45773019 0 5 C0 3.33333333 0 1.66666667 0 0 Z " fill="#A2CE47" transform="translate(333,304)"/>
<path d="M0 0 C-4.625 3 -4.625 3 -8 3 C-8 2.34 -8 1.68 -8 1 C-4.93251126 -0.86240388 -3.40254489 -1.2151946 0 0 Z " fill="#9DCC47" transform="translate(629,715)"/>
<path d="M0 0 C2.42945561 3.64418341 2.0828781 4.92923364 1.625 9.1875 C1.51414062 10.27417969 1.40328125 11.36085938 1.2890625 12.48046875 C1.19367188 13.31191406 1.09828125 14.14335937 1 15 C0.67 15 0.34 15 0 15 C-0.19448477 12.87562788 -0.38038289 10.75046809 -0.5625 8.625 C-0.66691406 7.44164062 -0.77132813 6.25828125 -0.87890625 5.0390625 C-1 2 -1 2 0 0 Z " fill="#B4D83F" transform="translate(488,475)"/>
<path d="M0 0 C0.33 0 0.66 0 1 0 C1 4.62 1 9.24 1 14 C0.67 14 0.34 14 0 14 C0 9.38 0 4.76 0 0 Z " fill="#B2E34D" transform="translate(535,464)"/>
<path d="M0 0 C0.33 0 0.66 0 1 0 C1 4.29 1 8.58 1 13 C0.67 13 0.34 13 0 13 C0 8.71 0 4.42 0 0 Z " fill="#AFEE50" transform="translate(488,595)"/>
<path d="M0 0 C0.33 0 0.66 0 1 0 C1 4.29 1 8.58 1 13 C0.67 13 0.34 13 0 13 C0 8.71 0 4.42 0 0 Z " fill="#AAAF50" transform="translate(240,523)"/>
<path d="M0 0 C0.33 0 0.66 0 1 0 C1 3.63 1 7.26 1 11 C0.67 11 0.34 11 0 11 C0 7.37 0 3.74 0 0 Z " fill="#C1E938" transform="translate(488,577)"/>
<path d="M0 0 C0.33 0 0.66 0 1 0 C1 3.63 1 7.26 1 11 C0.67 11 0.34 11 0 11 C0 7.37 0 3.74 0 0 Z " fill="#C1C13E" transform="translate(240,415)"/>
<path d="M0 0 C0.33 0 0.66 0 1 0 C1 2.97 1 5.94 1 9 C0.67 9 0.34 9 0 9 C0 6.03 0 3.06 0 0 Z " fill="#9CB14E" transform="translate(240,471)"/>
<path d="M0 0 C0.33 0 0.66 0 1 0 C1 2.64 1 5.28 1 8 C0.67 8 0.34 8 0 8 C0 5.36 0 2.72 0 0 Z " fill="#AAE955" transform="translate(535,599)"/>
<path d="M0 0 C0.33 0 0.66 0 1 0 C1 2.31 1 4.62 1 7 C0.67 7 0.34 7 0 7 C0 4.69 0 2.38 0 0 Z " fill="#C8D12D" transform="translate(240,579)"/>
<path d="M0 0 C0.33 0 0.66 0 1 0 C1 2.31 1 4.62 1 7 C0.67 7 0.34 7 0 7 C0 4.69 0 2.38 0 0 Z " fill="#9EA758" transform="translate(240,567)"/>
<path d="M0 0 C0.33 0 0.66 0 1 0 C1 2.31 1 4.62 1 7 C0.67 7 0.34 7 0 7 C0 4.69 0 2.38 0 0 Z " fill="#CEE927" transform="translate(488,569)"/>
<path d="M0 0 C0.33 0 0.66 0 1 0 C1 2.31 1 4.62 1 7 C0.67 7 0.34 7 0 7 C0 4.69 0 2.38 0 0 Z " fill="#83EE73" transform="translate(535,536)"/>
<path d="M0 0 C0.33 0 0.66 0 1 0 C1 2.31 1 4.62 1 7 C0.67 7 0.34 7 0 7 C0 4.69 0 2.38 0 0 Z " fill="#BCF243" transform="translate(535,528)"/>
<path d="M0 0 C0.33 0 0.66 0 1 0 C1 2.31 1 4.62 1 7 C0.67 7 0.34 7 0 7 C0 4.69 0 2.38 0 0 Z " fill="#A4FF5B" transform="translate(488,507)"/>
<path d="M0 0 C0.33 0 0.66 0 1 0 C1 2.31 1 4.62 1 7 C0.67 7 0.34 7 0 7 C0 4.69 0 2.38 0 0 Z " fill="#BCE939" transform="translate(535,480)"/>
<path d="M0 0 C0.33 0 0.66 0 1 0 C1 2.31 1 4.62 1 7 C0.67 7 0.34 7 0 7 C0 4.69 0 2.38 0 0 Z " fill="#CECE30" transform="translate(240,459)"/>
<path d="M0 0 C0.33 0 0.66 0 1 0 C1 2.31 1 4.62 1 7 C0.67 7 0.34 7 0 7 C0 4.69 0 2.38 0 0 Z " fill="#CECE30" transform="translate(240,387)"/>
<path d="M0 0 C0.33 0 0.66 0 1 0 C1 1.98 1 3.96 1 6 C0.67 6 0.34 6 0 6 C0 4.02 0 2.04 0 0 Z " fill="#B1E643" transform="translate(535,592)"/>
<path d="M0 0 C0.33 0 0.66 0 1 0 C1 1.98 1 3.96 1 6 C0.67 6 0.34 6 0 6 C0 4.02 0 2.04 0 0 Z " fill="#E9F40A" transform="translate(535,561)"/>
<path d="M0 0 C0.33 0 0.66 0 1 0 C1 1.98 1 3.96 1 6 C0.67 6 0.34 6 0 6 C0 4.02 0 2.04 0 0 Z " fill="#8EE271" transform="translate(535,496)"/>
<path d="M0 0 C0.33 0 0.66 0 1 0 C1 1.98 1 3.96 1 6 C0.67 6 0.34 6 0 6 C0 4.02 0 2.04 0 0 Z " fill="#A0A856" transform="translate(240,490)"/>
<path d="M0 0 C0.33 0 0.66 0 1 0 C1 1.98 1 3.96 1 6 C0.67 6 0.34 6 0 6 C0 4.02 0 2.04 0 0 Z " fill="#DBF023" transform="translate(535,449)"/>
<path d="M0 0 C0.33 0 0.66 0 1 0 C1 1.98 1 3.96 1 6 C0.67 6 0.34 6 0 6 C0 4.02 0 2.04 0 0 Z " fill="#B8E247" transform="translate(278,390)"/>
<path d="M0 0 C0.33 0 0.66 0 1 0 C1 1.65 1 3.3 1 5 C0.67 5 0.34 5 0 5 C0 3.35 0 1.7 0 0 Z " fill="#BBBB44" transform="translate(240,603)"/>
<path d="M0 0 C0.33 0 0.66 0 1 0 C1 1.65 1 3.3 1 5 C0.67 5 0.34 5 0 5 C0 3.35 0 1.7 0 0 Z " fill="#9EE84A" transform="translate(535,584)"/>
<path d="M0 0 C0.33 0 0.66 0 1 0 C1 1.65 1 3.3 1 5 C0.67 5 0.34 5 0 5 C0 3.35 0 1.7 0 0 Z " fill="#99FF66" transform="translate(535,569)"/>
<path d="M0 0 C0.33 0 0.66 0 1 0 C1 1.65 1 3.3 1 5 C0.67 5 0.34 5 0 5 C0 3.35 0 1.7 0 0 Z " fill="#CCFF33" transform="translate(488,563)"/>
<path d="M0 0 C0.33 0 0.66 0 1 0 C1 1.65 1 3.3 1 5 C0.67 5 0.34 5 0 5 C0 3.35 0 1.7 0 0 Z " fill="#EEEE11" transform="translate(488,555)"/>
<path d="M0 0 C0.33 0 0.66 0 1 0 C1 1.65 1 3.3 1 5 C0.67 5 0.34 5 0 5 C0 3.35 0 1.7 0 0 Z " fill="#CCF226" transform="translate(488,547)"/>
<path d="M0 0 C0.33 0 0.66 0 1 0 C1 1.65 1 3.3 1 5 C0.67 5 0.34 5 0 5 C0 3.35 0 1.7 0 0 Z " fill="#BBBB44" transform="translate(240,539)"/>
<path d="M0 0 C0.33 0 0.66 0 1 0 C1 1.65 1 3.3 1 5 C0.67 5 0.34 5 0 5 C0 3.35 0 1.7 0 0 Z " fill="#EEEE11" transform="translate(488,523)"/>
<path d="M0 0 C0.33 0 0.66 0 1 0 C1 1.65 1 3.3 1 5 C0.67 5 0.34 5 0 5 C0 3.35 0 1.7 0 0 Z " fill="#CCFF33" transform="translate(535,514)"/>
<path d="M0 0 C0.33 0 0.66 0 1 0 C1 1.65 1 3.3 1 5 C0.67 5 0.34 5 0 5 C0 3.35 0 1.7 0 0 Z " fill="#AAD048" transform="translate(535,490)"/>
<path d="M0 0 C0.33 0 0.66 0 1 0 C1 1.65 1 3.3 1 5 C0.67 5 0.34 5 0 5 C0 3.35 0 1.7 0 0 Z " fill="#BBBB44" transform="translate(240,481)"/>
<path d="M0 0 C0.33 0 0.66 0 1 0 C1 1.65 1 3.3 1 5 C0.67 5 0.34 5 0 5 C0 3.35 0 1.7 0 0 Z " fill="#BBEE44" transform="translate(535,458)"/>
<path d="M0 0 C0.33 0 0.66 0 1 0 C1 1.65 1 3.3 1 5 C0.67 5 0.34 5 0 5 C0 3.35 0 1.7 0 0 Z " fill="#EEEE11" transform="translate(488,433)"/>
<path d="M0 0 C0.33 0 0.66 0 1 0 C1 1.65 1 3.3 1 5 C0.67 5 0.34 5 0 5 C0 3.35 0 1.7 0 0 Z " fill="#A1EE5D" transform="translate(535,432)"/>
<path d="M0 0 C0.33 0 0.66 0 1 0 C1 1.65 1 3.3 1 5 C0.67 5 0.34 5 0 5 C0 3.35 0 1.7 0 0 Z " fill="#D4D42A" transform="translate(240,403)"/>
<path d="M0 0 C0.33 0 0.66 0 1 0 C1 1.65 1 3.3 1 5 C0.67 5 0.34 5 0 5 C0 3.35 0 1.7 0 0 Z " fill="#CCFF33" transform="translate(278,382)"/>
<path d="M0 0 C0.33 0 0.66 0 1 0 C1 1.65 1 3.3 1 5 C0.67 5 0.34 5 0 5 C0 3.35 0 1.7 0 0 Z " fill="#999966" transform="translate(240,379)"/>
<path d="M0 0 C0.33 0 0.66 0 1 0 C1 1.65 1 3.3 1 5 C0.67 5 0.34 5 0 5 C0 3.35 0 1.7 0 0 Z " fill="#A1A15D" transform="translate(240,371)"/>
<path d="M0 0 C0.33 0.66 0.66 1.32 1 2 C0.01 1.67 -0.98 1.34 -2 1 C-1.34 0.67 -0.68 0.34 0 0 Z " fill="#869D62" transform="translate(647,742)"/>
<path d="M0 0 C1 4 1 4 1 4 Z " fill="#BFEF30" transform="translate(535,617)"/>
<path d="M0 0 C1 4 1 4 1 4 Z " fill="#AAE955" transform="translate(535,544)"/>
<path d="M0 0 C1 4 1 4 1 4 Z " fill="#BFEF30" transform="translate(278,534)"/>
<path d="M0 0 C1 4 1 4 1 4 Z " fill="#BFEF30" transform="translate(535,520)"/>
<path d="M0 0 C1 4 1 4 1 4 Z " fill="#80F475" transform="translate(278,469)"/>
<path d="M0 0 C0.33 0.99 0.66 1.98 1 3 C0.34 2.67 -0.32 2.34 -1 2 C-0.67 1.34 -0.34 0.68 0 0 Z " fill="#BFFF40" transform="translate(488,463)"/>
<path d="M0 0 C1 4 1 4 1 4 Z " fill="#80EF70" transform="translate(535,441)"/>
<path d="M0 0 C1 4 1 4 1 4 Z " fill="#CAE935" transform="translate(535,426)"/>
<path d="M0 0 C1 4 1 4 1 4 Z " fill="#AAD945" transform="translate(535,418)"/>
<path d="M0 0 C1.485 0.99 1.485 0.99 3 2 C2.01 2 1.02 2 0 2 C0 1.34 0 0.68 0 0 Z " fill="#DFFF20" transform="translate(593,292)"/>
<path d="M0 0 C0.33 0.66 0.66 1.32 1 2 C0.01 1.67 -0.98 1.34 -2 1 C-1.34 0.67 -0.68 0.34 0 0 Z " fill="#D4D42A" transform="translate(439,286)"/>
<path d="M0 0 C0.33 0.66 0.66 1.32 1 2 C0.01 1.67 -0.98 1.34 -2 1 C-1.34 0.67 -0.68 0.34 0 0 Z " fill="#B0CD3E" transform="translate(509,245)"/>
<path d="M0 0 C0.66 0 1.32 0 2 0 C1.67 0.99 1.34 1.98 1 3 C0.67 2.01 0.34 1.02 0 0 Z " fill="#BFEF30" transform="translate(512,245)"/>
<path d="M0 0 C0.33 0.66 0.66 1.32 1 2 C0.34 1.67 -0.32 1.34 -1 1 C-0.67 0.67 -0.34 0.34 0 0 Z " fill="#80956A" transform="translate(565,789)"/>
<path d="M0 0 C3 1 3 1 3 1 Z " fill="#E2E21C" transform="translate(579,782)"/>
<path d="M0 0 C3 1 3 1 3 1 Z " fill="#AABF40" transform="translate(403,759)"/>
<path d="M0 0 C0.33 0.66 0.66 1.32 1 2 C0.34 1.67 -0.32 1.34 -1 1 C-0.67 0.67 -0.34 0.34 0 0 Z " fill="#D4D42A" transform="translate(620,757)"/>
<path d="M0 0 C0.99 0.495 0.99 0.495 2 1 C1.01 1.495 1.01 1.495 0 2 C0 1.34 0 0.68 0 0 Z " fill="#AAAA55" transform="translate(347,726)"/>
<path d="M0 0 C3 1 3 1 3 1 Z " fill="#8EA35C" transform="translate(624,712)"/>
<path d="M0 0 C0.33 0.66 0.66 1.32 1 2 C0.34 1.67 -0.32 1.34 -1 1 C-0.67 0.67 -0.34 0.34 0 0 Z " fill="#E2E21C" transform="translate(702,710)"/>
<path d="M0 0 C0.33 0.66 0.66 1.32 1 2 C0.34 1.67 -0.32 1.34 -1 1 C-0.67 0.67 -0.34 0.34 0 0 Z " fill="#8EB871" transform="translate(357,688)"/>
<path d="M0 0 C3 1 3 1 3 1 Z " fill="#AAF047" transform="translate(341,680)"/>
<path d="" fill="#9C9C63" transform="translate(0,0)"/>
<path d="" fill="#FFFF00" transform="translate(0,0)"/>
<path d="" fill="#D4D42A" transform="translate(0,0)"/>
<path d="" fill="#FFFF00" transform="translate(0,0)"/>
<path d="" fill="#E2E21C" transform="translate(0,0)"/>
<path d="" fill="#8ECD5C" transform="translate(0,0)"/>
<path d="" fill="#D4FF2A" transform="translate(0,0)"/>
<path d="" fill="#D4D42A" transform="translate(0,0)"/>
<path d="" fill="#808080" transform="translate(0,0)"/>
<path d="" fill="#AAAA55" transform="translate(0,0)"/>
<path d="" fill="#D4FF2A" transform="translate(0,0)"/>
<path d="" fill="#AAAA55" transform="translate(0,0)"/>
<path d="" fill="#D4FF2A" transform="translate(0,0)"/>
<path d="" fill="#B8E247" transform="translate(0,0)"/>
<path d="" fill="#D4D42A" transform="translate(0,0)"/>
<path d="" fill="#FFFF00" transform="translate(0,0)"/>
<path d="" fill="#B8E247" transform="translate(0,0)"/>
<path d="" fill="#D4D42A" transform="translate(0,0)"/>
<path d="" fill="#D4D42A" transform="translate(0,0)"/>
<path d="" fill="#8E8E71" transform="translate(0,0)"/>
<path d="" fill="#AAFF55" transform="translate(0,0)"/>
<path d="" fill="#D4FF2A" transform="translate(0,0)"/>
<path d="" fill="#AAAA55" transform="translate(0,0)"/>
<path d="" fill="#E2E21C" transform="translate(0,0)"/>
<path d="" fill="#AAFF55" transform="translate(0,0)"/>
<path d="" fill="#FFFF00" transform="translate(0,0)"/>
<path d="" fill="#AAAA55" transform="translate(0,0)"/>
<path d="" fill="#E2E21C" transform="translate(0,0)"/>
<path d="" fill="#D4D42A" transform="translate(0,0)"/>
<path d="" fill="#AAE940" transform="translate(0,0)"/>
<path d="" fill="#8E8E71" transform="translate(0,0)"/>
<path d="" fill="#E2E21C" transform="translate(0,0)"/>
<path d="" fill="#8E8E71" transform="translate(0,0)"/>
<path d="" fill="#C6C638" transform="translate(0,0)"/>
<path d="" fill="#D4D42A" transform="translate(0,0)"/>
<path d="" fill="#8EB871" transform="translate(0,0)"/>
<path d="M0 0 C0.66 0 1.32 0 2 0 C1.67 0.66 1.34 1.32 1 2 C0.67 1.34 0.34 0.68 0 0 Z " fill="#D4FF2A" transform="translate(487,401)"/>
<path d="" fill="#FFFF00" transform="translate(0,0)"/>
<path d="" fill="#8E8E71" transform="translate(0,0)"/>
<path d="M0 0 C3 1 3 1 3 1 Z " fill="#E2E21C" transform="translate(595,392)"/>
<path d="M0 0 C3 1 3 1 3 1 Z " fill="#FFFF00" transform="translate(501,392)"/>
<path d="M0 0 C0.66 0.66 1.32 1.32 2 2 C1.34 2 0.68 2 0 2 C0 1.34 0 0.68 0 0 Z " fill="#D4FF2A" transform="translate(721,366)"/>
<path d="M0 0 C3 1 3 1 3 1 Z " fill="#E2E21C" transform="translate(704,357)"/>
<path d="M0 0 C0.33 0.66 0.66 1.32 1 2 C0.34 1.67 -0.32 1.34 -1 1 C-0.67 0.67 -0.34 0.34 0 0 Z " fill="#E2E21C" transform="translate(341,342)"/>
<path d="M0 0 C0.66 0.66 1.32 1.32 2 2 C1.34 2 0.68 2 0 2 C0 1.34 0 0.68 0 0 Z " fill="#AAE940" transform="translate(528,254)"/>
<path d="" fill="#FFFF00" transform="translate(0,0)"/>
<path d="M0 0 C2 1 2 1 2 1 Z " fill="#FFFF00" transform="translate(481,805)"/>
<path d="M0 0 C2 1 2 1 2 1 Z " fill="#AAAA55" transform="translate(549,799)"/>
<path d="M0 0 C2 1 2 1 2 1 Z " fill="#BFDF20" transform="translate(472,799)"/>
<path d="" fill="#808080" transform="translate(0,0)"/>
<path d="M0 0 C2 1 2 1 2 1 Z " fill="#BFBF40" transform="translate(441,781)"/>
<path d="M0 0 C2 1 2 1 2 1 Z " fill="#95D46A" transform="translate(514,776)"/>
<path d="M0 0 C2 1 2 1 2 1 Z " fill="#BFDF20" transform="translate(590,775)"/>
<path d="M0 0 C2 1 2 1 2 1 Z " fill="#D4D42A" transform="translate(528,768)"/>
<path d="M0 0 C2 1 2 1 2 1 Z " fill="#BFBF40" transform="translate(541,760)"/>
<path d="M0 0 C2 1 2 1 2 1 Z " fill="#95D46A" transform="translate(478,760)"/>
<path d="M0 0 C2 1 2 1 2 1 Z " fill="#BFBF40" transform="translate(386,749)"/>
<path d="M0 0 C2 1 2 1 2 1 Z " fill="#BFBF40" transform="translate(672,727)"/>
<path d="M0 0 C2 1 2 1 2 1 Z " fill="#D4D42A" transform="translate(396,712)"/>
<path d="M0 0 C2 1 2 1 2 1 Z " fill="#FFFF00" transform="translate(382,704)"/>
<path d="" fill="#D4D42A" transform="translate(0,0)"/>
<path d="M0 0 C2 1 2 1 2 1 Z " fill="#D4D42A" transform="translate(644,701)"/>
<path d="M0 0 C2 1 2 1 2 1 Z " fill="#BFFF40" transform="translate(666,688)"/>
<path d="M0 0 C2 1 2 1 2 1 Z " fill="#95B44A" transform="translate(680,680)"/>
<path d="M0 0 C2 1 2 1 2 1 Z " fill="#95D46A" transform="translate(699,669)"/>
<path d="" fill="#BFBF40" transform="translate(0,0)"/>
<path d="" fill="#FFFF00" transform="translate(0,0)"/>
<path d="" fill="#D4D42A" transform="translate(0,0)"/>
<path d="" fill="#95956A" transform="translate(0,0)"/>
<path d="M0 0 C2 1 2 1 2 1 Z " fill="#BFBF40" transform="translate(406,634)"/>
<path d="" fill="#95B44A" transform="translate(0,0)"/>
<path d="" fill="#BFFF40" transform="translate(0,0)"/>
<path d="" fill="#D4D42A" transform="translate(0,0)"/>
<path d="" fill="#BFFF40" transform="translate(0,0)"/>
<path d="" fill="#BFFF40" transform="translate(0,0)"/>
<path d="" fill="#FFFF00" transform="translate(0,0)"/>
<path d="" fill="#95D46A" transform="translate(0,0)"/>
<path d="" fill="#BFFF40" transform="translate(0,0)"/>
<path d="" fill="#BFFF40" transform="translate(0,0)"/>
<path d="" fill="#BFFF40" transform="translate(0,0)"/>
<path d="" fill="#D4D42A" transform="translate(0,0)"/>
<path d="M0 0 C2 1 2 1 2 1 Z " fill="#FFFF00" transform="translate(743,561)"/>
<path d="" fill="#80FF80" transform="translate(0,0)"/>
<path d="" fill="#BFFF40" transform="translate(0,0)"/>
<path d="" fill="#BFFF40" transform="translate(0,0)"/>
<path d="" fill="#FFFF00" transform="translate(0,0)"/>
<path d="" fill="#BFFF40" transform="translate(0,0)"/>
<path d="" fill="#D4D42A" transform="translate(0,0)"/>
<path d="" fill="#BFFF40" transform="translate(0,0)"/>
<path d="" fill="#FFFF00" transform="translate(0,0)"/>
<path d="" fill="#BFFF40" transform="translate(0,0)"/>
<path d="" fill="#FFFF00" transform="translate(0,0)"/>
<path d="" fill="#BFFF40" transform="translate(0,0)"/>
<path d="" fill="#FFFF00" transform="translate(0,0)"/>
<path d="" fill="#BFFF40" transform="translate(0,0)"/>
<path d="" fill="#95D46A" transform="translate(0,0)"/>
<path d="" fill="#BFFF40" transform="translate(0,0)"/>
<path d="" fill="#80FF80" transform="translate(0,0)"/>
<path d="" fill="#FFFF00" transform="translate(0,0)"/>
<path d="" fill="#FFFF00" transform="translate(0,0)"/>
<path d="" fill="#BFFF40" transform="translate(0,0)"/>
<path d="" fill="#BFFF40" transform="translate(0,0)"/>
<path d="" fill="#BFFF40" transform="translate(0,0)"/>
<path d="" fill="#80DF60" transform="translate(0,0)"/>
<path d="" fill="#FFFF00" transform="translate(0,0)"/>
<path d="" fill="#BFFF40" transform="translate(0,0)"/>
<path d="" fill="#FFFF00" transform="translate(0,0)"/>
<path d="" fill="#BFDF20" transform="translate(0,0)"/>
<path d="" fill="#D4D42A" transform="translate(0,0)"/>
<path d="" fill="#FFFF00" transform="translate(0,0)"/>
<path d="M0 0 C2 1 2 1 2 1 Z " fill="#FFFF00" transform="translate(420,392)"/>
<path d="" fill="#D4D42A" transform="translate(0,0)"/>
<path d="M0 0 C2 1 2 1 2 1 Z " fill="#95956A" transform="translate(736,375)"/>
<path d="M0 0 C2 1 2 1 2 1 Z " fill="#BFFF40" transform="translate(729,371)"/>
<path d="M0 0 C2 1 2 1 2 1 Z " fill="#95B44A" transform="translate(326,351)"/>
<path d="M0 0 C2 1 2 1 2 1 Z " fill="#80FF80" transform="translate(381,319)"/>
<path d="M0 0 C2 1 2 1 2 1 Z " fill="#FFFF00" transform="translate(702,313)"/>
<path d="M0 0 C2 1 2 1 2 1 Z " fill="#FFFF00" transform="translate(700,312)"/>
<path d="M0 0 C2 1 2 1 2 1 Z " fill="#BFBF40" transform="translate(331,305)"/>
<path d="M0 0 C2 1 2 1 2 1 Z " fill="#FFFF00" transform="translate(611,303)"/>
<path d="M0 0 C2 1 2 1 2 1 Z " fill="#D4D42A" transform="translate(597,295)"/>
<path d="M0 0 C2 1 2 1 2 1 Z " fill="#808080" transform="translate(361,288)"/>
<path d="M0 0 C2 1 2 1 2 1 Z " fill="#FFFF00" transform="translate(446,282)"/>
<path d="M0 0 C2 1 2 1 2 1 Z " fill="#FFFF00" transform="translate(452,278)"/>
<path d="M0 0 C2 1 2 1 2 1 Z " fill="#FFFF00" transform="translate(556,271)"/>
<path d="M0 0 C2 1 2 1 2 1 Z " fill="#FFFF00" transform="translate(478,263)"/>
<path d="M0 0 C2 1 2 1 2 1 Z " fill="#FFFF00" transform="translate(534,258)"/>
<path d="M0 0 C2 1 2 1 2 1 Z " fill="#8CA659" transform="translate(416,256)"/>
<path d="M0 0 C2 1 2 1 2 1 Z " fill="#FFFF00" transform="translate(515,247)"/>
<path d="M0 0 C2 1 2 1 2 1 Z " fill="#D4D42A" transform="translate(436,245)"/>
<path d="M0 0 C2 1 2 1 2 1 Z " fill="#AAAA55" transform="translate(444,240)"/>
<path d="M0 0 C2 1 2 1 2 1 Z " fill="#BFBF40" transform="translate(534,216)"/>
<path d="" fill="#000000" transform="translate(0,0)"/>
<path d="" fill="#000000" transform="translate(0,0)"/>
<path d="" fill="#000000" transform="translate(0,0)"/>
<path d="" fill="#000000" transform="translate(0,0)"/>
<path d="" fill="#000000" transform="translate(0,0)"/>
<path d="" fill="#000000" transform="translate(0,0)"/>
<path d="" fill="#000000" transform="translate(0,0)"/>
<path d="" fill="#000000" transform="translate(0,0)"/>
<path d="" fill="#000000" transform="translate(0,0)"/>
<path d="" fill="#000000" transform="translate(0,0)"/>
<path d="" fill="#000000" transform="translate(0,0)"/>
<path d="" fill="#000000" transform="translate(0,0)"/>
<path d="" fill="#000000" transform="translate(0,0)"/>
<path d="" fill="#000000" transform="translate(0,0)"/>
<path d="" fill="#000000" transform="translate(0,0)"/>
<path d="" fill="#000000" transform="translate(0,0)"/>
<path d="" fill="#000000" transform="translate(0,0)"/>
<path d="" fill="#000000" transform="translate(0,0)"/>
<path d="" fill="#000000" transform="translate(0,0)"/>
<path d="" fill="#000000" transform="translate(0,0)"/>
<path d="" fill="#000000" transform="translate(0,0)"/>
<path d="" fill="#000000" transform="translate(0,0)"/>
<path d="" fill="#000000" transform="translate(0,0)"/>
<path d="" fill="#000000" transform="translate(0,0)"/>
<path d="" fill="#000000" transform="translate(0,0)"/>
<path d="" fill="#000000" transform="translate(0,0)"/>
<path d="" fill="#00FF00" transform="translate(0,0)"/>
<path d="" fill="#808080" transform="translate(0,0)"/>
<path d="" fill="#000000" transform="translate(0,0)"/>
<path d="" fill="#00FF00" transform="translate(0,0)"/>
<path d="" fill="#AAAA55" transform="translate(0,0)"/>
<path d="" fill="#808080" transform="translate(0,0)"/>
<path d="" fill="#000000" transform="translate(0,0)"/>
<path d="" fill="#FFFF00" transform="translate(0,0)"/>
<path d="" fill="#FFFF00" transform="translate(0,0)"/>
<path d="" fill="#808080" transform="translate(0,0)"/>
<path d="" fill="#FFFF00" transform="translate(0,0)"/>
<path d="" fill="#FFFF00" transform="translate(0,0)"/>
<path d="" fill="#FFFF00" transform="translate(0,0)"/>
<path d="" fill="#FFFF00" transform="translate(0,0)"/>
<path d="" fill="#808080" transform="translate(0,0)"/>
<path d="" fill="#FFFF00" transform="translate(0,0)"/>
<path d="" fill="#99CC33" transform="translate(0,0)"/>
<path d="" fill="#FFFF00" transform="translate(0,0)"/>
<path d="" fill="#FFFF00" transform="translate(0,0)"/>
<path d="" fill="#000000" transform="translate(0,0)"/>
<path d="" fill="#FFFF00" transform="translate(0,0)"/>
<path d="" fill="#808080" transform="translate(0,0)"/>
<path d="" fill="#FFFF00" transform="translate(0,0)"/>
<path d="" fill="#FFFF00" transform="translate(0,0)"/>
<path d="" fill="#AAAA55" transform="translate(0,0)"/>
<path d="" fill="#00FF00" transform="translate(0,0)"/>
<path d="" fill="#FFFF00" transform="translate(0,0)"/>
<path d="" fill="#FFFF00" transform="translate(0,0)"/>
<path d="" fill="#FFFF00" transform="translate(0,0)"/>
<path d="" fill="#FFFF00" transform="translate(0,0)"/>
<path d="" fill="#FFFF00" transform="translate(0,0)"/>
<path d="" fill="#FFFF00" transform="translate(0,0)"/>
<path d="" fill="#FFFF00" transform="translate(0,0)"/>
<path d="" fill="#FFFF00" transform="translate(0,0)"/>
<path d="" fill="#FFFF00" transform="translate(0,0)"/>
<path d="" fill="#FFFF00" transform="translate(0,0)"/>
<path d="" fill="#FFFF00" transform="translate(0,0)"/>
<path d="" fill="#000000" transform="translate(0,0)"/>
<path d="" fill="#FFFF00" transform="translate(0,0)"/>
<path d="" fill="#808080" transform="translate(0,0)"/>
<path d="" fill="#99CC33" transform="translate(0,0)"/>
<path d="" fill="#808080" transform="translate(0,0)"/>
<path d="" fill="#FFFF00" transform="translate(0,0)"/>
<path d="" fill="#FFFF00" transform="translate(0,0)"/>
<path d="" fill="#FFFF00" transform="translate(0,0)"/>
<path d="" fill="#FFFF00" transform="translate(0,0)"/>
<path d="" fill="#808080" transform="translate(0,0)"/>
<path d="" fill="#000000" transform="translate(0,0)"/>
<path d="" fill="#FFFF00" transform="translate(0,0)"/>
<path d="" fill="#FFFF00" transform="translate(0,0)"/>
<path d="" fill="#808080" transform="translate(0,0)"/>
<path d="" fill="#99CC33" transform="translate(0,0)"/>
<path d="" fill="#FFFF00" transform="translate(0,0)"/>
<path d="" fill="#808080" transform="translate(0,0)"/>
<path d="" fill="#000000" transform="translate(0,0)"/>
<path d="" fill="#FFFF00" transform="translate(0,0)"/>
<path d="" fill="#FFFF00" transform="translate(0,0)"/>
<path d="" fill="#FFFF00" transform="translate(0,0)"/>
<path d="" fill="#80FF80" transform="translate(0,0)"/>
<path d="" fill="#FFFF00" transform="translate(0,0)"/>
<path d="" fill="#FFFF00" transform="translate(0,0)"/>
<path d="" fill="#808080" transform="translate(0,0)"/>
<path d="" fill="#AAAA55" transform="translate(0,0)"/>
<path d="" fill="#FFFF00" transform="translate(0,0)"/>
<path d="" fill="#FFFF00" transform="translate(0,0)"/>
<path d="" fill="#FFFF00" transform="translate(0,0)"/>
<path d="" fill="#FFFF00" transform="translate(0,0)"/>
<path d="" fill="#80FF80" transform="translate(0,0)"/>
<path d="" fill="#FFFF00" transform="translate(0,0)"/>
<path d="" fill="#FFFF00" transform="translate(0,0)"/>
<path d="" fill="#FFFF00" transform="translate(0,0)"/>
<path d="" fill="#FFFF00" transform="translate(0,0)"/>
<path d="" fill="#FFFF00" transform="translate(0,0)"/>
<path d="" fill="#808080" transform="translate(0,0)"/>
<path d="" fill="#808080" transform="translate(0,0)"/>
<path d="" fill="#808080" transform="translate(0,0)"/>
<path d="" fill="#FFFF00" transform="translate(0,0)"/>
<path d="" fill="#99CC33" transform="translate(0,0)"/>
<path d="" fill="#80FF80" transform="translate(0,0)"/>
<path d="" fill="#808080" transform="translate(0,0)"/>
<path d="" fill="#FFFF00" transform="translate(0,0)"/>
<path d="" fill="#000000" transform="translate(0,0)"/>
<path d="" fill="#FFFF00" transform="translate(0,0)"/>
<path d="" fill="#FFFF00" transform="translate(0,0)"/>
<path d="" fill="#FFFF00" transform="translate(0,0)"/>
<path d="" fill="#FFFF00" transform="translate(0,0)"/>
<path d="" fill="#FFFF00" transform="translate(0,0)"/>
<path d="" fill="#FFFF00" transform="translate(0,0)"/>
<path d="" fill="#FFFF00" transform="translate(0,0)"/>
<path d="" fill="#808080" transform="translate(0,0)"/>
<path d="" fill="#AAAA55" transform="translate(0,0)"/>
<path d="" fill="#00FF00" transform="translate(0,0)"/>
<path d="" fill="#FFFF00" transform="translate(0,0)"/>
<path d="" fill="#FFFF00" transform="translate(0,0)"/>
<path d="" fill="#FFFF00" transform="translate(0,0)"/>
<path d="" fill="#80FF80" transform="translate(0,0)"/>
<path d="" fill="#FFFF00" transform="translate(0,0)"/>
<path d="" fill="#99CC33" transform="translate(0,0)"/>
<path d="" fill="#FFFF00" transform="translate(0,0)"/>
<path d="" fill="#FFFF00" transform="translate(0,0)"/>
<path d="" fill="#FFFF00" transform="translate(0,0)"/>
<path d="" fill="#AAAA55" transform="translate(0,0)"/>
<path d="" fill="#FFFF00" transform="translate(0,0)"/>
<path d="" fill="#FFFF00" transform="translate(0,0)"/>
<path d="" fill="#FFFF00" transform="translate(0,0)"/>
<path d="" fill="#FFFF00" transform="translate(0,0)"/>
<path d="" fill="#808080" transform="translate(0,0)"/>
<path d="" fill="#FFFF00" transform="translate(0,0)"/>
<path d="" fill="#000000" transform="translate(0,0)"/>
<path d="" fill="#808080" transform="translate(0,0)"/>
<path d="" fill="#80FF80" transform="translate(0,0)"/>
<path d="" fill="#80BF40" transform="translate(0,0)"/>
<path d="" fill="#FFFF00" transform="translate(0,0)"/>
<path d="" fill="#FFFF00" transform="translate(0,0)"/>
<path d="" fill="#FFFF00" transform="translate(0,0)"/>
<path d="" fill="#FFFF00" transform="translate(0,0)"/>
<path d="" fill="#80AA55" transform="translate(0,0)"/>
<path d="" fill="#808080" transform="translate(0,0)"/>
<path d="" fill="#00FF00" transform="translate(0,0)"/>
<path d="" fill="#FFFF00" transform="translate(0,0)"/>
<path d="" fill="#FFFF00" transform="translate(0,0)"/>
<path d="" fill="#000000" transform="translate(0,0)"/>
<path d="" fill="#AAAA55" transform="translate(0,0)"/>
<path d="" fill="#FFFF00" transform="translate(0,0)"/>
<path d="" fill="#FFFF00" transform="translate(0,0)"/>
<path d="" fill="#80FF80" transform="translate(0,0)"/>
<path d="" fill="#FFFF00" transform="translate(0,0)"/>
<path d="" fill="#FFFF00" transform="translate(0,0)"/>
<path d="" fill="#808080" transform="translate(0,0)"/>
<path d="" fill="#FFFF00" transform="translate(0,0)"/>
<path d="" fill="#AAAA55" transform="translate(0,0)"/>
<path d="" fill="#AAAA55" transform="translate(0,0)"/>
<path d="" fill="#FFFF00" transform="translate(0,0)"/>
<path d="" fill="#FFFF00" transform="translate(0,0)"/>
<path d="" fill="#FFFF00" transform="translate(0,0)"/>
<path d="" fill="#808080" transform="translate(0,0)"/>
<path d="" fill="#808080" transform="translate(0,0)"/>
<path d="" fill="#80FF80" transform="translate(0,0)"/>
<path d="" fill="#FFFF00" transform="translate(0,0)"/>
<path d="" fill="#FFFF00" transform="translate(0,0)"/>
<path d="" fill="#FFFF00" transform="translate(0,0)"/>
<path d="" fill="#FFFF00" transform="translate(0,0)"/>
<path d="" fill="#FFFF00" transform="translate(0,0)"/>
<path d="" fill="#FFFF00" transform="translate(0,0)"/>
<path d="" fill="#808080" transform="translate(0,0)"/>
<path d="" fill="#FFFF00" transform="translate(0,0)"/>
<path d="" fill="#FFFF00" transform="translate(0,0)"/>
<path d="" fill="#FFFF00" transform="translate(0,0)"/>
<path d="" fill="#FFFF00" transform="translate(0,0)"/>
<path d="" fill="#FFFF00" transform="translate(0,0)"/>
<path d="" fill="#FFFF00" transform="translate(0,0)"/>
<path d="" fill="#AAAA55" transform="translate(0,0)"/>
<path d="" fill="#808080" transform="translate(0,0)"/>
<path d="" fill="#000000" transform="translate(0,0)"/>
<path d="" fill="#FFFF00" transform="translate(0,0)"/>
<path d="" fill="#FFFF00" transform="translate(0,0)"/>
<path d="" fill="#FFFF00" transform="translate(0,0)"/>
<path d="" fill="#FFFF00" transform="translate(0,0)"/>
<path d="" fill="#FFFF00" transform="translate(0,0)"/>
<path d="" fill="#808080" transform="translate(0,0)"/>
<path d="" fill="#808080" transform="translate(0,0)"/>
<path d="" fill="#FFFF00" transform="translate(0,0)"/>
<path d="" fill="#FFFF00" transform="translate(0,0)"/>
<path d="" fill="#FFFF00" transform="translate(0,0)"/>
<path d="" fill="#80FF80" transform="translate(0,0)"/>
<path d="" fill="#000000" transform="translate(0,0)"/>
<path d="" fill="#000000" transform="translate(0,0)"/>
<path d="" fill="#FFFF00" transform="translate(0,0)"/>
<path d="" fill="#FFFF00" transform="translate(0,0)"/>
<path d="" fill="#80FF80" transform="translate(0,0)"/>
<path d="" fill="#808080" transform="translate(0,0)"/>
<path d="" fill="#FFFF00" transform="translate(0,0)"/>
<path d="" fill="#FFFF00" transform="translate(0,0)"/>
<path d="" fill="#FFFF00" transform="translate(0,0)"/>
<path d="" fill="#FFFF00" transform="translate(0,0)"/>
<path d="" fill="#80FF80" transform="translate(0,0)"/>
<path d="" fill="#FFFF00" transform="translate(0,0)"/>
<path d="" fill="#80FF80" transform="translate(0,0)"/>
<path d="" fill="#FFFF00" transform="translate(0,0)"/>
<path d="" fill="#FFFF00" transform="translate(0,0)"/>
<path d="" fill="#FFFF00" transform="translate(0,0)"/>
<path d="" fill="#FFFF00" transform="translate(0,0)"/>
<path d="" fill="#FFFF00" transform="translate(0,0)"/>
<path d="" fill="#FFFF00" transform="translate(0,0)"/>
<path d="" fill="#FFFF00" transform="translate(0,0)"/>
<path d="" fill="#FFFF00" transform="translate(0,0)"/>
<path d="" fill="#FFFF00" transform="translate(0,0)"/>
<path d="" fill="#000000" transform="translate(0,0)"/>
<path d="" fill="#80FF80" transform="translate(0,0)"/>
<path d="" fill="#80FF80" transform="translate(0,0)"/>
<path d="" fill="#FFFF00" transform="translate(0,0)"/>
<path d="" fill="#80FF80" transform="translate(0,0)"/>
<path d="" fill="#80FF80" transform="translate(0,0)"/>
<path d="" fill="#FFFF00" transform="translate(0,0)"/>
<path d="" fill="#FFFF00" transform="translate(0,0)"/>
<path d="" fill="#FFFF00" transform="translate(0,0)"/>
<path d="" fill="#AAAA55" transform="translate(0,0)"/>
<path d="" fill="#80FF80" transform="translate(0,0)"/>
<path d="" fill="#000000" transform="translate(0,0)"/>
<path d="" fill="#80FF80" transform="translate(0,0)"/>
<path d="" fill="#FFFF00" transform="translate(0,0)"/>
<path d="" fill="#80FF80" transform="translate(0,0)"/>
<path d="" fill="#80FF80" transform="translate(0,0)"/>
<path d="" fill="#808080" transform="translate(0,0)"/>
<path d="" fill="#80FF80" transform="translate(0,0)"/>
<path d="" fill="#FFFF00" transform="translate(0,0)"/>
<path d="" fill="#AAAA55" transform="translate(0,0)"/>
<path d="" fill="#80FF80" transform="translate(0,0)"/>
<path d="" fill="#80FF80" transform="translate(0,0)"/>
<path d="" fill="#FFFF00" transform="translate(0,0)"/>
<path d="" fill="#FFFF00" transform="translate(0,0)"/>
<path d="" fill="#FFFF00" transform="translate(0,0)"/>
<path d="" fill="#808080" transform="translate(0,0)"/>
<path d="" fill="#808080" transform="translate(0,0)"/>
<path d="" fill="#FFFF00" transform="translate(0,0)"/>
<path d="" fill="#FFFF00" transform="translate(0,0)"/>
<path d="" fill="#80FF80" transform="translate(0,0)"/>
<path d="" fill="#000000" transform="translate(0,0)"/>
<path d="" fill="#FFFF00" transform="translate(0,0)"/>
<path d="" fill="#FFFF00" transform="translate(0,0)"/>
<path d="" fill="#FFFF00" transform="translate(0,0)"/>
<path d="" fill="#FFFF00" transform="translate(0,0)"/>
<path d="" fill="#80FF80" transform="translate(0,0)"/>
<path d="" fill="#80FF80" transform="translate(0,0)"/>
<path d="" fill="#FFFF00" transform="translate(0,0)"/>
<path d="" fill="#FFFF00" transform="translate(0,0)"/>
<path d="" fill="#FFFF00" transform="translate(0,0)"/>
<path d="" fill="#FFFF00" transform="translate(0,0)"/>
<path d="" fill="#FFFF00" transform="translate(0,0)"/>
<path d="" fill="#AAAA55" transform="translate(0,0)"/>
<path d="" fill="#808080" transform="translate(0,0)"/>
<path d="" fill="#FFFF00" transform="translate(0,0)"/>
<path d="" fill="#80FF80" transform="translate(0,0)"/>
<path d="" fill="#80FF80" transform="translate(0,0)"/>
<path d="" fill="#80FF80" transform="translate(0,0)"/>
<path d="" fill="#AAAA55" transform="translate(0,0)"/>
<path d="" fill="#FFFF00" transform="translate(0,0)"/>
<path d="" fill="#FFFF00" transform="translate(0,0)"/>
<path d="" fill="#000000" transform="translate(0,0)"/>
<path d="" fill="#000000" transform="translate(0,0)"/>
<path d="" fill="#FFFF00" transform="translate(0,0)"/>
<path d="" fill="#80FF80" transform="translate(0,0)"/>
<path d="" fill="#FFFF00" transform="translate(0,0)"/>
<path d="" fill="#FFFF00" transform="translate(0,0)"/>
<path d="" fill="#FFFF00" transform="translate(0,0)"/>
<path d="" fill="#FFFF00" transform="translate(0,0)"/>
<path d="" fill="#FFFF00" transform="translate(0,0)"/>
<path d="" fill="#FFFF00" transform="translate(0,0)"/>
<path d="" fill="#AAAA55" transform="translate(0,0)"/>
<path d="" fill="#FFFF00" transform="translate(0,0)"/>
<path d="" fill="#FFFF00" transform="translate(0,0)"/>
<path d="" fill="#FFFF00" transform="translate(0,0)"/>
<path d="" fill="#FFFF00" transform="translate(0,0)"/>
<path d="" fill="#80FF80" transform="translate(0,0)"/>
<path d="" fill="#FFFF00" transform="translate(0,0)"/>
<path d="" fill="#FFFF00" transform="translate(0,0)"/>
<path d="" fill="#FFFF00" transform="translate(0,0)"/>
<path d="" fill="#FFFF00" transform="translate(0,0)"/>
<path d="" fill="#80FF80" transform="translate(0,0)"/>
<path d="" fill="#FFFF00" transform="translate(0,0)"/>
<path d="" fill="#FFFF00" transform="translate(0,0)"/>
<path d="" fill="#FFFF00" transform="translate(0,0)"/>
<path d="" fill="#FFFF00" transform="translate(0,0)"/>
<path d="" fill="#AAAA55" transform="translate(0,0)"/>
<path d="" fill="#FFFF00" transform="translate(0,0)"/>
<path d="" fill="#FFFF00" transform="translate(0,0)"/>
<path d="" fill="#FFFF00" transform="translate(0,0)"/>
<path d="" fill="#80FF80" transform="translate(0,0)"/>
<path d="" fill="#80FF80" transform="translate(0,0)"/>
<path d="" fill="#FFFF00" transform="translate(0,0)"/>
<path d="" fill="#FFFF00" transform="translate(0,0)"/>
<path d="" fill="#99CC33" transform="translate(0,0)"/>
<path d="" fill="#808080" transform="translate(0,0)"/>
<path d="" fill="#FFFF00" transform="translate(0,0)"/>
<path d="" fill="#80FF80" transform="translate(0,0)"/>
<path d="" fill="#FFFF00" transform="translate(0,0)"/>
<path d="" fill="#80FF80" transform="translate(0,0)"/>
<path d="" fill="#00FF00" transform="translate(0,0)"/>
<path d="" fill="#FFFF00" transform="translate(0,0)"/>
<path d="" fill="#FFFF00" transform="translate(0,0)"/>
<path d="" fill="#FFFF00" transform="translate(0,0)"/>
<path d="" fill="#80FF80" transform="translate(0,0)"/>
<path d="" fill="#FFFF00" transform="translate(0,0)"/>
<path d="" fill="#FFFF00" transform="translate(0,0)"/>
<path d="" fill="#FFFF00" transform="translate(0,0)"/>
<path d="" fill="#808080" transform="translate(0,0)"/>
<path d="" fill="#FFFF00" transform="translate(0,0)"/>
<path d="" fill="#AAAA55" transform="translate(0,0)"/>
<path d="" fill="#AAAA55" transform="translate(0,0)"/>
<path d="" fill="#AAAA55" transform="translate(0,0)"/>
<path d="" fill="#80FF80" transform="translate(0,0)"/>
<path d="" fill="#80FF80" transform="translate(0,0)"/>
<path d="" fill="#80FF80" transform="translate(0,0)"/>
<path d="" fill="#80FF80" transform="translate(0,0)"/>
<path d="" fill="#FFFF00" transform="translate(0,0)"/>
<path d="" fill="#FFFF00" transform="translate(0,0)"/>
<path d="" fill="#000000" transform="translate(0,0)"/>
<path d="" fill="#FFFF00" transform="translate(0,0)"/>
<path d="" fill="#80FF80" transform="translate(0,0)"/>
<path d="" fill="#FFFF00" transform="translate(0,0)"/>
<path d="" fill="#FFFF00" transform="translate(0,0)"/>
<path d="" fill="#FFFF00" transform="translate(0,0)"/>
<path d="" fill="#FFFF00" transform="translate(0,0)"/>
<path d="" fill="#FFFF00" transform="translate(0,0)"/>
<path d="" fill="#FFFF00" transform="translate(0,0)"/>
<path d="" fill="#FFFF00" transform="translate(0,0)"/>
<path d="" fill="#80FF80" transform="translate(0,0)"/>
<path d="" fill="#80FF80" transform="translate(0,0)"/>
<path d="" fill="#FFFF00" transform="translate(0,0)"/>
<path d="" fill="#80FF80" transform="translate(0,0)"/>
<path d="" fill="#FFFF00" transform="translate(0,0)"/>
<path d="" fill="#FFFF00" transform="translate(0,0)"/>
<path d="" fill="#FFFF00" transform="translate(0,0)"/>
<path d="" fill="#80FF80" transform="translate(0,0)"/>
<path d="" fill="#FFFF00" transform="translate(0,0)"/>
<path d="" fill="#000000" transform="translate(0,0)"/>
<path d="" fill="#000000" transform="translate(0,0)"/>
<path d="" fill="#FFFF00" transform="translate(0,0)"/>
<path d="" fill="#FFFF00" transform="translate(0,0)"/>
<path d="" fill="#FFFF00" transform="translate(0,0)"/>
<path d="" fill="#FFFF00" transform="translate(0,0)"/>
<path d="" fill="#80FF80" transform="translate(0,0)"/>
<path d="" fill="#FFFF00" transform="translate(0,0)"/>
<path d="" fill="#80FF80" transform="translate(0,0)"/>
<path d="" fill="#80FF80" transform="translate(0,0)"/>
<path d="" fill="#000000" transform="translate(0,0)"/>
<path d="" fill="#FFFF00" transform="translate(0,0)"/>
<path d="" fill="#FFFF00" transform="translate(0,0)"/>
<path d="" fill="#80FF80" transform="translate(0,0)"/>
<path d="" fill="#80FF80" transform="translate(0,0)"/>
<path d="" fill="#80FF80" transform="translate(0,0)"/>
<path d="" fill="#80FF80" transform="translate(0,0)"/>
<path d="" fill="#FFFF00" transform="translate(0,0)"/>
<path d="" fill="#FFFF00" transform="translate(0,0)"/>
<path d="" fill="#FFFF00" transform="translate(0,0)"/>
<path d="" fill="#FFFF00" transform="translate(0,0)"/>
<path d="" fill="#80FF80" transform="translate(0,0)"/>
<path d="" fill="#FFFF00" transform="translate(0,0)"/>
<path d="" fill="#FFFF00" transform="translate(0,0)"/>
<path d="" fill="#AAAA55" transform="translate(0,0)"/>
<path d="" fill="#000000" transform="translate(0,0)"/>
<path d="" fill="#FFFF00" transform="translate(0,0)"/>
<path d="" fill="#000000" transform="translate(0,0)"/>
<path d="" fill="#FFFF00" transform="translate(0,0)"/>
<path d="" fill="#FFFF00" transform="translate(0,0)"/>
<path d="" fill="#FFFF00" transform="translate(0,0)"/>
<path d="" fill="#FFFF00" transform="translate(0,0)"/>
<path d="" fill="#80FF80" transform="translate(0,0)"/>
<path d="" fill="#80FF80" transform="translate(0,0)"/>
<path d="" fill="#FFFF00" transform="translate(0,0)"/>
<path d="" fill="#80FF80" transform="translate(0,0)"/>
<path d="" fill="#FFFF00" transform="translate(0,0)"/>
<path d="" fill="#FFFF00" transform="translate(0,0)"/>
<path d="" fill="#FFFF00" transform="translate(0,0)"/>
<path d="" fill="#FFFF00" transform="translate(0,0)"/>
<path d="" fill="#FFFF00" transform="translate(0,0)"/>
<path d="" fill="#FFFF00" transform="translate(0,0)"/>
<path d="" fill="#AAAA55" transform="translate(0,0)"/>
<path d="" fill="#FFFF00" transform="translate(0,0)"/>
<path d="" fill="#FFFF00" transform="translate(0,0)"/>
<path d="" fill="#FFFF00" transform="translate(0,0)"/>
<path d="" fill="#FFFF00" transform="translate(0,0)"/>
<path d="" fill="#FFFF00" transform="translate(0,0)"/>
<path d="" fill="#FFFF00" transform="translate(0,0)"/>
<path d="" fill="#FFFF00" transform="translate(0,0)"/>
<path d="" fill="#FFFF00" transform="translate(0,0)"/>
<path d="" fill="#808080" transform="translate(0,0)"/>
<path d="" fill="#FFFF00" transform="translate(0,0)"/>
<path d="" fill="#FFFF00" transform="translate(0,0)"/>
<path d="" fill="#FFFF00" transform="translate(0,0)"/>
<path d="" fill="#FFFF00" transform="translate(0,0)"/>
<path d="" fill="#FFFF00" transform="translate(0,0)"/>
<path d="" fill="#FFFF00" transform="translate(0,0)"/>
<path d="" fill="#FFFF00" transform="translate(0,0)"/>
<path d="" fill="#FFFF00" transform="translate(0,0)"/>
<path d="" fill="#FFFF00" transform="translate(0,0)"/>
<path d="" fill="#808080" transform="translate(0,0)"/>
<path d="" fill="#FFFF00" transform="translate(0,0)"/>
<path d="" fill="#FFFF00" transform="translate(0,0)"/>
<path d="" fill="#FFFF00" transform="translate(0,0)"/>
<path d="" fill="#AAAA55" transform="translate(0,0)"/>
<path d="" fill="#808080" transform="translate(0,0)"/>
<path d="" fill="#FFFF00" transform="translate(0,0)"/>
<path d="" fill="#FFFF00" transform="translate(0,0)"/>
<path d="" fill="#FFFF00" transform="translate(0,0)"/>
<path d="" fill="#FFFF00" transform="translate(0,0)"/>
<path d="" fill="#FFFF00" transform="translate(0,0)"/>
<path d="" fill="#80FF80" transform="translate(0,0)"/>
<path d="" fill="#000000" transform="translate(0,0)"/>
<path d="" fill="#000000" transform="translate(0,0)"/>
<path d="" fill="#FFFF00" transform="translate(0,0)"/>
<path d="" fill="#00FF00" transform="translate(0,0)"/>
<path d="" fill="#FFFF00" transform="translate(0,0)"/>
<path d="" fill="#80BF40" transform="translate(0,0)"/>
<path d="" fill="#FFFF00" transform="translate(0,0)"/>
<path d="" fill="#FFFF00" transform="translate(0,0)"/>
<path d="" fill="#FFFF00" transform="translate(0,0)"/>
<path d="" fill="#FFFF00" transform="translate(0,0)"/>
<path d="" fill="#000000" transform="translate(0,0)"/>
<path d="" fill="#80FF80" transform="translate(0,0)"/>
<path d="" fill="#FFFF00" transform="translate(0,0)"/>
<path d="" fill="#FFFF00" transform="translate(0,0)"/>
<path d="" fill="#AAAA55" transform="translate(0,0)"/>
<path d="" fill="#80FF80" transform="translate(0,0)"/>
<path d="" fill="#AAAA55" transform="translate(0,0)"/>
<path d="" fill="#FFFF00" transform="translate(0,0)"/>
<path d="" fill="#AAAA55" transform="translate(0,0)"/>
<path d="" fill="#FFFF00" transform="translate(0,0)"/>
<path d="" fill="#80BF40" transform="translate(0,0)"/>
<path d="" fill="#808080" transform="translate(0,0)"/>
<path d="" fill="#808080" transform="translate(0,0)"/>
<path d="" fill="#000000" transform="translate(0,0)"/>
<path d="" fill="#000000" transform="translate(0,0)"/>
<path d="" fill="#FFFF00" transform="translate(0,0)"/>
<path d="" fill="#000000" transform="translate(0,0)"/>
<path d="" fill="#80FF80" transform="translate(0,0)"/>
<path d="" fill="#80BF40" transform="translate(0,0)"/>
<path d="" fill="#FFFF00" transform="translate(0,0)"/>
<path d="" fill="#FFFF00" transform="translate(0,0)"/>
<path d="" fill="#FFFF00" transform="translate(0,0)"/>
<path d="" fill="#AAAA55" transform="translate(0,0)"/>
<path d="" fill="#80D455" transform="translate(0,0)"/>
<path d="" fill="#FFFF00" transform="translate(0,0)"/>
<path d="" fill="#FFFF00" transform="translate(0,0)"/>
<path d="" fill="#AAAA55" transform="translate(0,0)"/>
<path d="" fill="#FFFF00" transform="translate(0,0)"/>
<path d="" fill="#808080" transform="translate(0,0)"/>
<path d="" fill="#FFFF00" transform="translate(0,0)"/>
<path d="" fill="#000000" transform="translate(0,0)"/>
<path d="" fill="#FFFF00" transform="translate(0,0)"/>
<path d="" fill="#FFFF00" transform="translate(0,0)"/>
<path d="" fill="#FFFF00" transform="translate(0,0)"/>
<path d="" fill="#FFFF00" transform="translate(0,0)"/>
<path d="" fill="#FFFF00" transform="translate(0,0)"/>
<path d="" fill="#FFFF00" transform="translate(0,0)"/>
<path d="" fill="#FFFF00" transform="translate(0,0)"/>
<path d="" fill="#000000" transform="translate(0,0)"/>
<path d="" fill="#FFFF00" transform="translate(0,0)"/>
<path d="" fill="#AAAA55" transform="translate(0,0)"/>
<path d="" fill="#FFFF00" transform="translate(0,0)"/>
<path d="" fill="#FFFF00" transform="translate(0,0)"/>
<path d="" fill="#FFFF00" transform="translate(0,0)"/>
<path d="" fill="#80FF80" transform="translate(0,0)"/>
<path d="" fill="#FFFF00" transform="translate(0,0)"/>
<path d="" fill="#000000" transform="translate(0,0)"/>
<path d="" fill="#FFFF00" transform="translate(0,0)"/>
<path d="" fill="#FFFF00" transform="translate(0,0)"/>
<path d="" fill="#FFFF00" transform="translate(0,0)"/>
<path d="" fill="#FFFF00" transform="translate(0,0)"/>
<path d="" fill="#000000" transform="translate(0,0)"/>
<path d="" fill="#000000" transform="translate(0,0)"/>
<path d="" fill="#FFFF00" transform="translate(0,0)"/>
<path d="" fill="#FFFF00" transform="translate(0,0)"/>
<path d="" fill="#808080" transform="translate(0,0)"/>
<path d="" fill="#FFFF00" transform="translate(0,0)"/>
<path d="" fill="#FFFF00" transform="translate(0,0)"/>
<path d="" fill="#FFFF00" transform="translate(0,0)"/>
<path d="" fill="#808080" transform="translate(0,0)"/>
<path d="" fill="#808080" transform="translate(0,0)"/>
<path d="" fill="#FFFF00" transform="translate(0,0)"/>
<path d="" fill="#FFFF00" transform="translate(0,0)"/>
<path d="" fill="#FFFF00" transform="translate(0,0)"/>
<path d="" fill="#FFFF00" transform="translate(0,0)"/>
<path d="" fill="#AAAA55" transform="translate(0,0)"/>
<path d="" fill="#AAAA55" transform="translate(0,0)"/>
<path d="" fill="#FFFF00" transform="translate(0,0)"/>
<path d="" fill="#80BF40" transform="translate(0,0)"/>
<path d="" fill="#FFFF00" transform="translate(0,0)"/>
<path d="" fill="#FFFF00" transform="translate(0,0)"/>
<path d="" fill="#808080" transform="translate(0,0)"/>
<path d="" fill="#FFFF00" transform="translate(0,0)"/>
<path d="" fill="#808080" transform="translate(0,0)"/>
<path d="" fill="#FFFF00" transform="translate(0,0)"/>
<path d="" fill="#FFFF00" transform="translate(0,0)"/>
<path d="" fill="#FFFF00" transform="translate(0,0)"/>
<path d="" fill="#AAAA55" transform="translate(0,0)"/>
<path d="" fill="#FFFF00" transform="translate(0,0)"/>
<path d="" fill="#FFFF00" transform="translate(0,0)"/>
<path d="" fill="#808080" transform="translate(0,0)"/>
<path d="" fill="#80BF40" transform="translate(0,0)"/>
<path d="" fill="#808080" transform="translate(0,0)"/>
<path d="" fill="#FFFF00" transform="translate(0,0)"/>
<path d="" fill="#FFFF00" transform="translate(0,0)"/>
<path d="" fill="#FFFF00" transform="translate(0,0)"/>
<path d="" fill="#80BF40" transform="translate(0,0)"/>
<path d="" fill="#808080" transform="translate(0,0)"/>
<path d="" fill="#FFFF00" transform="translate(0,0)"/>
<path d="" fill="#80AA55" transform="translate(0,0)"/>
<path d="" fill="#FFFF00" transform="translate(0,0)"/>
<path d="" fill="#FFFF00" transform="translate(0,0)"/>
<path d="" fill="#808080" transform="translate(0,0)"/>
<path d="" fill="#80FF80" transform="translate(0,0)"/>
<path d="" fill="#AAAA55" transform="translate(0,0)"/>
<path d="" fill="#80FF80" transform="translate(0,0)"/>
<path d="" fill="#FFFF00" transform="translate(0,0)"/>
<path d="" fill="#FFFF00" transform="translate(0,0)"/>
<path d="" fill="#808080" transform="translate(0,0)"/>
<path d="" fill="#FFFF00" transform="translate(0,0)"/>
<path d="" fill="#FFFF00" transform="translate(0,0)"/>
<path d="" fill="#FFFF00" transform="translate(0,0)"/>
<path d="" fill="#808080" transform="translate(0,0)"/>
<path d="" fill="#AAAA55" transform="translate(0,0)"/>
<path d="" fill="#FFFF00" transform="translate(0,0)"/>
<path d="" fill="#80FF80" transform="translate(0,0)"/>
<path d="" fill="#FFFF00" transform="translate(0,0)"/>
<path d="" fill="#FFFF00" transform="translate(0,0)"/>
<path d="" fill="#FFFF00" transform="translate(0,0)"/>
<path d="" fill="#FFFF00" transform="translate(0,0)"/>
<path d="" fill="#FFFF00" transform="translate(0,0)"/>
<path d="" fill="#FFFF00" transform="translate(0,0)"/>
<path d="" fill="#000000" transform="translate(0,0)"/>
<path d="" fill="#FFFF00" transform="translate(0,0)"/>
<path d="" fill="#FFFF00" transform="translate(0,0)"/>
<path d="" fill="#808080" transform="translate(0,0)"/>
<path d="" fill="#808080" transform="translate(0,0)"/>
<path d="" fill="#808080" transform="translate(0,0)"/>
<path d="" fill="#808080" transform="translate(0,0)"/>
<path d="" fill="#FFFF00" transform="translate(0,0)"/>
<path d="" fill="#808080" transform="translate(0,0)"/>
<path d="" fill="#FFFF00" transform="translate(0,0)"/>
<path d="" fill="#FFFF00" transform="translate(0,0)"/>
<path d="" fill="#FFFF00" transform="translate(0,0)"/>
<path d="" fill="#FFFF00" transform="translate(0,0)"/>
<path d="" fill="#AAAA55" transform="translate(0,0)"/>
<path d="" fill="#000000" transform="translate(0,0)"/>
<path d="" fill="#000000" transform="translate(0,0)"/>
<path d="" fill="#000000" transform="translate(0,0)"/>
<path d="" fill="#000000" transform="translate(0,0)"/>
<path d="" fill="#000000" transform="translate(0,0)"/>
<path d="" fill="#000000" transform="translate(0,0)"/>
<path d="" fill="#000000" transform="translate(0,0)"/>
<path d="" fill="#000000" transform="translate(0,0)"/>
<path d="" fill="#000000" transform="translate(0,0)"/>
<path d="" fill="#000000" transform="translate(0,0)"/>
<path d="" fill="#000000" transform="translate(0,0)"/>
<path d="" fill="#000000" transform="translate(0,0)"/>
<path d="" fill="#000000" transform="translate(0,0)"/>
<path d="" fill="#000000" transform="translate(0,0)"/>
<path d="" fill="#000000" transform="translate(0,0)"/>
<path d="" fill="#000000" transform="translate(0,0)"/>
<path d="" fill="#000000" transform="translate(0,0)"/>
<path d="" fill="#000000" transform="translate(0,0)"/>
<path d="" fill="#000000" transform="translate(0,0)"/>
<path d="" fill="#000000" transform="translate(0,0)"/>
<path d="" fill="#000000" transform="translate(0,0)"/>
<path d="" fill="#000000" transform="translate(0,0)"/>
<path d="" fill="#000000" transform="translate(0,0)"/>
<path d="" fill="#000000" transform="translate(0,0)"/>
<path d="" fill="#000000" transform="translate(0,0)"/>
<path d="" fill="#000000" transform="translate(0,0)"/>
<path d="" fill="#000000" transform="translate(0,0)"/>
<path d="" fill="#000000" transform="translate(0,0)"/>
<path d="" fill="#000000" transform="translate(0,0)"/>
<path d="" fill="#000000" transform="translate(0,0)"/>
</svg>
